<svg xmlns="http://www.w3.org/2000/svg" width="248" height="95" viewBox="0 0 248 95" fill="none"><path fill-rule="evenodd" clip-rule="evenodd" d="M111.381 0.331989C110.822 0.50908 109.957 0.910868 109.459 1.2247C108.96 1.53854 108.103 2.23745 107.554 2.77783C107.005 3.31822 106.365 4.14273 106.131 4.60985C105.897 5.07698 105.706 5.64488 105.706 5.87177C105.706 6.26985 105.737 6.28048 106.596 6.18088C107.124 6.11943 108.058 5.79547 108.897 5.38254C109.868 4.90427 110.647 4.35663 111.394 3.62615C112.134 2.90327 112.647 2.20993 113.003 1.4521C113.29 0.840133 113.477 0.260916 113.418 0.165027C113.358 0.0693073 113.104 -0.00497293 112.854 0.000260443C112.603 0.00549382 111.94 0.154729 111.381 0.331989ZM133.622 0.0826439C133.565 0.138861 133.585 0.413697 133.665 0.693092C133.746 0.972318 134.001 1.52385 134.233 1.91838C134.465 2.31291 135.147 3.09386 135.747 3.65383C136.348 4.21397 137.248 4.90326 137.747 5.18553C138.246 5.46796 139.069 5.82011 139.575 5.96817C140.081 6.11605 140.71 6.2371 140.973 6.2371C141.259 6.2371 141.45 6.14644 141.45 6.01088C141.45 5.88646 141.217 5.32024 140.933 4.75284C140.648 4.18527 140.08 3.34912 139.67 2.89449C139.259 2.44003 138.52 1.79126 138.027 1.45311C137.534 1.1148 136.711 0.694274 136.199 0.518534C135.686 0.342793 134.92 0.149834 134.496 0.0895655C134.072 0.0294661 133.678 0.0262585 133.622 0.0826439ZM103.165 0.464681C103.026 0.509755 102.585 0.777502 102.187 1.05994C101.789 1.34237 101.076 2.072 100.604 2.68127C100.131 3.2907 99.4136 4.47294 99.0089 5.30859C98.6042 6.14425 98.1467 7.32176 97.9922 7.92528C97.829 8.56257 97.742 9.39401 97.7842 9.90873C97.8243 10.3961 97.9078 10.8453 97.97 10.9073C98.032 10.9691 98.445 10.714 98.8876 10.3402C99.3304 9.96664 100.094 9.1374 100.584 8.49758C101.075 7.85792 101.776 6.72667 102.144 5.98387C102.511 5.24107 102.972 4.04667 103.167 3.32953C103.369 2.58774 103.5 1.67173 103.471 1.20444C103.431 0.564115 103.363 0.401036 103.165 0.464681ZM143.409 1.13033C143.474 1.57146 143.663 2.47109 143.83 3.12965C143.996 3.78838 144.365 4.83793 144.65 5.46222C144.933 6.08651 145.507 7.10499 145.923 7.72557C146.339 8.34598 147.212 9.37729 147.863 10.0171L149.045 11.1806L149.155 10.4392C149.216 10.0315 149.185 9.19936 149.086 8.59009C148.988 7.98082 148.763 7.06549 148.588 6.55616C148.412 6.04684 148.097 5.29171 147.888 4.87844C147.678 4.46501 147.178 3.66413 146.776 3.09859C146.374 2.53288 145.771 1.83076 145.437 1.53803C145.102 1.2453 144.529 0.85347 144.162 0.667094C143.796 0.480887 143.45 0.328444 143.395 0.328444C143.339 0.328444 143.345 0.689378 143.409 1.13033ZM92.1609 6.9301C91.8837 7.31129 91.495 8.05207 91.2969 8.57608C91.0989 9.10026 90.8233 10.0608 90.6847 10.7108C90.518 11.4919 90.4518 12.5506 90.4897 13.8339C90.5387 15.4956 90.6078 15.8971 90.9695 16.6194C91.2019 17.0837 91.4682 17.4635 91.5614 17.4635C91.6545 17.4635 92.0165 16.8938 92.3659 16.1974C92.715 15.501 93.1221 14.4754 93.2703 13.9183C93.4185 13.3612 93.5811 11.9791 93.6318 10.8469C93.6902 9.54003 93.6518 8.49201 93.5266 7.97694C93.418 7.53075 93.2462 6.95677 93.1448 6.70135C93.0433 6.44593 92.8937 6.2371 92.8124 6.2371C92.7311 6.2371 92.4378 6.5489 92.1609 6.9301ZM153.838 6.67873C153.727 6.92149 153.548 7.68725 153.44 8.38025C153.288 9.35298 153.291 10.0701 153.453 11.526C153.582 12.6745 153.863 14.0049 154.174 14.9284C154.454 15.7625 154.876 16.6968 155.112 17.0047C155.434 17.4259 155.594 17.5199 155.758 17.3845C155.878 17.2856 156.115 16.731 156.285 16.1523C156.506 15.4021 156.593 14.5669 156.587 13.2431C156.582 12.1111 156.468 10.9311 156.295 10.2205C156.139 9.57954 155.857 8.7059 155.668 8.27913C155.479 7.85235 155.128 7.21844 154.886 6.87017C154.645 6.52206 154.356 6.2371 154.244 6.2371C154.132 6.2371 153.949 6.4358 153.838 6.67873ZM103.25 9.79562C102.598 9.87176 101.591 10.0809 101.012 10.2606C100.433 10.4402 99.5994 10.7971 99.1604 11.0537L98.3618 11.5199L98.7475 11.8312C98.9598 12.0026 99.5261 12.2594 100.006 12.402C100.486 12.5447 101.584 12.7348 102.445 12.8244C103.471 12.9311 104.579 12.9287 105.654 12.8178C106.556 12.7245 107.604 12.5695 107.983 12.4734C108.361 12.3774 108.9 12.2131 109.179 12.1084C109.459 12.0036 109.908 11.7662 110.178 11.5807L110.669 11.2434L110.298 10.9444C110.094 10.78 109.51 10.49 109.001 10.2999C108.491 10.1098 107.408 9.87818 106.594 9.78533C105.78 9.69231 104.961 9.62546 104.775 9.63677C104.588 9.64808 103.902 9.71949 103.25 9.79562ZM139.04 10.0448C138.506 10.1738 137.682 10.4751 137.208 10.7145C136.733 10.9541 136.376 11.2411 136.412 11.3525C136.449 11.4637 137.197 11.7976 138.075 12.0943C138.953 12.391 140.353 12.7231 141.187 12.8322C142.045 12.9444 143.243 12.9816 143.949 12.9178C144.635 12.856 145.93 12.6196 146.828 12.3926C147.726 12.1657 148.528 11.9128 148.61 11.8304C148.698 11.7435 148.545 11.528 148.247 11.3162C147.964 11.1156 147.386 10.7987 146.962 10.6119C146.538 10.425 145.613 10.162 144.907 10.0272C144.2 9.89253 142.81 9.78853 141.816 9.7963C140.823 9.80407 139.574 9.91582 139.04 10.0448ZM84.0738 14.9605C83.8926 15.223 83.5849 15.8176 83.3901 16.2818C83.1953 16.7461 82.9124 17.6023 82.7615 18.1847C82.6107 18.767 82.4415 19.8358 82.3854 20.5597C82.3276 21.3062 82.3695 22.3826 82.4821 23.0462C82.5914 23.6897 82.8374 24.6937 83.0288 25.277C83.2202 25.8604 83.5599 26.5546 83.7836 26.8196C84.0134 27.0918 84.4352 27.3472 84.7528 27.4066C85.0619 27.4644 85.92 27.4048 86.6594 27.2743C87.3988 27.1436 88.4298 26.876 88.9502 26.6799C89.4708 26.4835 90.3671 26.0388 90.9422 25.6916C91.5173 25.3445 92.4856 24.6162 93.0939 24.0733C93.7024 23.5305 94.4615 22.6996 94.7808 22.2269C95.1715 21.6489 95.3089 21.304 95.2001 21.1735C95.0859 21.0364 94.7307 21.0216 93.9885 21.1227C93.4109 21.2014 92.6286 21.3477 92.2498 21.4477C91.8712 21.5478 90.9266 21.9244 90.1509 22.285C89.3751 22.6454 88.346 23.2245 87.864 23.5717C87.3819 23.9192 86.4226 24.7379 85.7323 25.3914C85.0418 26.0451 84.5338 26.4278 84.6032 26.2421C84.6727 26.0564 84.8729 25.3514 85.0482 24.6755C85.2236 23.9995 85.455 22.7876 85.5625 21.9821C85.6765 21.1279 85.7099 19.9278 85.6427 19.1014C85.5793 18.3223 85.3365 17.0273 85.1034 16.2236C84.8704 15.42 84.6176 14.6996 84.5415 14.6228C84.4657 14.546 84.2551 14.6979 84.0738 14.9605ZM162.232 15.3271C162.085 15.692 161.837 16.6208 161.681 17.3911C161.467 18.443 161.418 19.2993 161.485 20.8288C161.55 22.3368 161.689 23.253 162.018 24.3576C162.263 25.1782 162.601 26.1187 162.771 26.4477L163.079 27.046L163.431 26.5529C163.625 26.2816 163.956 25.569 164.167 24.9692C164.491 24.0458 164.552 23.5164 164.562 21.5152C164.569 20.0424 164.486 18.8018 164.342 18.2232C164.214 17.7125 163.893 16.8345 163.629 16.2718C163.364 15.7093 163.001 15.1175 162.823 14.9566C162.51 14.6747 162.488 14.688 162.232 15.3271ZM97.9661 15.1014C97.3893 15.2321 96.3559 15.5564 95.6699 15.8219C94.9836 16.0873 93.9867 16.5928 93.4541 16.9451C92.9215 17.2974 92.3716 17.748 92.2319 17.9465C91.9905 18.2896 92.0054 18.3144 92.5319 18.4432C92.8366 18.5178 94.0007 18.5862 95.1188 18.5951C96.4723 18.6061 97.5331 18.5193 98.2929 18.3358C98.9207 18.1842 100.026 17.8312 100.749 17.5513C101.473 17.2714 102.56 16.7261 103.165 16.3395L104.266 15.6368L103.504 15.2919C102.911 15.0236 102.328 14.9377 100.878 14.9053C99.7331 14.8796 98.6108 14.9552 97.9661 15.1014ZM143.928 15.0839C143.566 15.2181 143.199 15.3994 143.112 15.4867C143.013 15.5856 143.196 15.8361 143.599 16.1525C143.954 16.4315 144.626 16.849 145.092 17.0803C145.558 17.3118 146.435 17.6587 147.04 17.8513C147.646 18.0439 148.599 18.2951 149.158 18.4093C149.717 18.5235 150.936 18.6166 151.868 18.6157C152.8 18.615 153.905 18.5183 154.325 18.4006L155.087 18.1868L154.311 17.4862C153.884 17.1009 153.032 16.5409 152.416 16.242C151.801 15.943 150.74 15.5377 150.058 15.3415C149.199 15.0942 148.169 14.9623 146.701 14.9122C145.122 14.858 144.417 14.9017 143.928 15.0839ZM151.903 21.3886C151.964 21.5511 152.18 21.9499 152.385 22.2749C152.589 22.5998 153.205 23.2876 153.752 23.8032C154.3 24.3188 155.112 24.9881 155.556 25.2908C156.001 25.5935 156.839 26.0613 157.419 26.3306C158 26.5997 158.929 26.9368 159.484 27.0796C160.04 27.2226 160.878 27.3382 161.348 27.3369C161.817 27.3354 162.293 27.2766 162.404 27.2061C162.543 27.1183 162.303 26.7237 161.642 25.9497C161.111 25.3291 160.182 24.4263 159.576 23.9435C158.97 23.4607 157.865 22.7746 157.12 22.4187C156.374 22.063 155.162 21.6192 154.424 21.4325C153.688 21.2459 152.794 21.0931 152.439 21.0931C151.896 21.0931 151.811 21.1399 151.903 21.3886ZM77.3583 26.4531C77.3152 26.5227 77.1855 27.0602 77.0696 27.6472C76.938 28.3149 76.8985 29.2667 76.9642 30.1882C77.0218 30.9987 77.262 32.3255 77.498 33.1367C77.7338 33.9478 78.1937 35.1397 78.52 35.7853C78.8461 36.4308 79.4424 37.3014 79.8449 37.7203C80.2476 38.1389 80.6628 38.4815 80.7676 38.4815C80.8727 38.4815 81.019 38.1967 81.0932 37.8484C81.1672 37.5003 81.2218 36.5316 81.2145 35.696C81.2072 34.8603 81.0648 33.5688 80.8982 32.826C80.7315 32.0832 80.3694 30.9057 80.0931 30.2093C79.8169 29.513 79.4319 28.6773 79.2376 28.3523C79.0433 28.0274 78.625 27.4387 78.3084 27.044C77.9916 26.6493 77.6659 26.3265 77.5844 26.3265C77.5029 26.3265 77.4011 26.3836 77.3583 26.4531ZM168.559 27.2972C168.158 27.831 167.612 28.7401 167.346 29.3173C167.08 29.8945 166.671 31.0242 166.437 31.8281C166.203 32.6319 165.94 33.923 165.852 34.6972C165.747 35.6114 165.751 36.473 165.861 37.1547C165.954 37.7321 166.093 38.316 166.17 38.4526C166.28 38.6481 166.478 38.5254 167.105 37.8737C167.543 37.4187 168.202 36.4388 168.569 35.696C168.937 34.9531 169.395 33.8136 169.587 33.1637C169.807 32.4205 169.971 31.2542 170.03 30.0209C170.091 28.7357 170.052 27.7611 169.915 27.1932C169.8 26.7165 169.612 26.3265 169.497 26.3265C169.383 26.3265 168.96 26.7634 168.559 27.2972ZM88.9267 29.6649C88.2265 30.0155 87.1771 30.6677 86.5949 31.1142C86.0126 31.5607 85.1612 32.375 84.703 32.9236C84.2449 33.4724 83.5644 34.4345 83.1911 35.0619C82.8177 35.6892 82.2872 36.7475 82.0119 37.4138C81.6348 38.3268 81.5653 38.6461 81.7303 38.709C81.8506 38.7551 82.206 38.7315 82.5203 38.6565C82.8343 38.5817 83.2438 38.4612 83.4301 38.3889C83.6164 38.3167 84.2664 37.9407 84.8746 37.5533C85.4826 37.1659 86.4954 36.3304 87.1251 35.6966C87.7548 35.0629 88.6414 33.9909 89.0954 33.3144C89.5494 32.638 90.0701 31.6816 90.2526 31.1892C90.435 30.6967 90.6361 30.009 90.6993 29.6607C90.7977 29.1196 90.7698 29.0276 90.507 29.0276C90.3381 29.0276 89.6268 29.3144 88.9267 29.6649ZM156.418 29.806C156.48 30.2558 156.76 31.111 157.04 31.7069C157.319 32.3027 157.881 33.254 158.289 33.8209C158.697 34.3879 159.553 35.3534 160.192 35.9666C160.832 36.5795 161.775 37.3492 162.289 37.6767C162.803 38.0044 163.587 38.3954 164.031 38.5458C164.476 38.696 164.951 38.8191 165.087 38.8191C165.224 38.8191 165.336 38.6653 165.336 38.4772C165.336 38.2892 165.186 37.7116 165.004 37.1939C164.821 36.6759 164.331 35.7093 163.916 35.0457C163.5 34.3819 162.733 33.3693 162.211 32.7953C161.689 32.2213 160.788 31.3936 160.207 30.956C159.627 30.5185 158.695 29.9502 158.136 29.6933C157.577 29.4363 156.937 29.1726 156.713 29.1073C156.313 28.9906 156.308 29.003 156.418 29.806ZM159.576 40.1491V41.8578H161.28H162.985L162.424 41.0767C162.115 40.6471 161.482 39.9794 161.016 39.5931C160.55 39.2069 160.035 38.7894 159.872 38.6655C159.595 38.4544 159.576 38.5481 159.576 40.1491ZM86.6318 39.1301C86.2684 39.3941 85.6557 39.9529 85.2701 40.3719C84.8848 40.7909 84.4817 41.2967 84.3749 41.4959C84.1821 41.8548 84.1948 41.8578 85.8805 41.8578H87.5804V40.2541C87.5804 39.372 87.5157 38.6503 87.4364 38.6503C87.3573 38.6503 86.9952 38.8662 86.6318 39.1301ZM74.1977 40.4114V41.8578H75.5529C76.5568 41.8578 76.9082 41.8006 76.9082 41.6368C76.9082 41.5153 76.2983 40.8643 75.5529 40.1904L74.1977 38.965V40.4114ZM171.81 39.882C171.412 40.1833 170.935 40.6562 170.753 40.9329C170.57 41.2094 170.419 41.534 170.419 41.6542C170.418 41.8175 170.728 41.86 171.646 41.8231L172.874 41.7734L172.924 40.5495C172.961 39.6336 172.918 39.3266 172.754 39.3298C172.634 39.3321 172.209 39.5806 171.81 39.882ZM201.757 46.0997V52.8741L200.986 52.1662C200.562 51.7769 199.746 51.2371 199.173 50.9668C198.599 50.6963 197.56 50.3487 196.864 50.1944C195.917 49.9846 195.189 49.9404 193.976 50.0194C193.085 50.0774 191.909 50.2444 191.364 50.3904C190.818 50.5365 189.952 50.8414 189.437 51.0679C188.923 51.2946 188.017 51.8252 187.424 52.2471C186.83 52.6691 185.964 53.4842 185.497 54.0584C185.031 54.6325 184.38 55.6456 184.051 56.3097C183.722 56.9739 183.25 58.267 183.002 59.1835C182.588 60.7176 182.551 61.1182 182.543 64.2263C182.534 67.1982 182.579 67.7847 182.918 69.122C183.13 69.9577 183.65 71.354 184.074 72.2248C184.704 73.5181 185.099 74.0625 186.229 75.1966C187.281 76.2526 187.916 76.7319 188.882 77.198C189.581 77.5353 190.61 77.9334 191.169 78.0828C191.728 78.2322 193.139 78.3941 194.303 78.4427C196.268 78.5244 196.516 78.4989 197.737 78.0892C198.46 77.8464 199.375 77.4467 199.77 77.201C200.164 76.9554 200.772 76.4489 201.122 76.0755L201.757 75.3965V76.7753V78.1538H205.145H208.533V58.7397V39.3256H205.145H201.757V46.0997ZM222.82 49.9664C222.34 50.0523 221.547 50.2795 221.06 50.4711C220.572 50.6627 219.764 51.0902 219.263 51.4211C218.763 51.7518 218.081 52.3374 217.748 52.7222C217.415 53.1071 216.947 53.8018 216.708 54.266C216.47 54.7303 216.172 55.4899 216.048 55.9542C215.923 56.4184 215.82 57.341 215.819 58.0045C215.818 58.7444 215.95 59.6388 216.161 60.3188C216.35 60.9284 216.77 61.774 217.095 62.1981C217.419 62.622 217.932 63.197 218.233 63.4757C218.535 63.7546 219.544 64.3544 220.476 64.8089C221.407 65.2632 222.97 65.915 223.948 66.2572C224.927 66.5996 226.096 67.0766 226.546 67.3177C226.996 67.5588 227.549 67.9743 227.774 68.241C228.088 68.6134 228.183 68.9233 228.183 69.5763C228.183 70.1377 228.058 70.6495 227.813 71.0827C227.578 71.5007 227.19 71.8611 226.744 72.0764C226.235 72.3218 225.7 72.4135 224.784 72.4123C223.823 72.4111 223.325 72.3176 222.678 72.0171C222.212 71.8005 221.481 71.2689 221.052 70.8356C220.624 70.4022 220.052 69.5966 219.782 69.0452C219.511 68.4939 219.227 68.0387 219.151 68.0338C219.074 68.0288 218.16 68.4893 217.118 69.0571C216.077 69.6248 214.901 70.2737 214.505 70.4988L213.786 70.9081L214.19 71.7033C214.413 72.1407 214.943 72.9686 215.368 73.5434C215.793 74.1181 216.658 75.0152 217.292 75.537C217.925 76.0586 218.976 76.7459 219.629 77.064C220.281 77.382 221.272 77.7603 221.831 77.9047C222.39 78.049 223.46 78.2123 224.209 78.2675C225.17 78.3382 225.993 78.2832 227.004 78.0806C227.792 77.9227 228.995 77.5277 229.676 77.2029C230.501 76.8092 231.276 76.2589 231.999 75.5515C232.76 74.808 233.262 74.1233 233.676 73.2616C234.001 72.5855 234.355 71.6091 234.463 71.0918C234.571 70.5746 234.627 69.4923 234.589 68.6868C234.53 67.4617 234.429 67.0407 233.97 66.1113C233.599 65.3608 233.113 64.727 232.471 64.1569C231.949 63.693 230.971 63.0426 230.299 62.7117C229.627 62.3808 227.868 61.689 226.389 61.1742C224.91 60.6595 223.45 60.0837 223.143 59.8948C222.836 59.7059 222.472 59.3344 222.335 59.0694C222.197 58.8045 222.085 58.2478 222.085 57.8325C222.085 57.2708 222.195 56.9474 222.514 56.5692C222.75 56.2898 223.218 55.9706 223.555 55.86C223.9 55.7465 224.557 55.6989 225.061 55.7508C225.553 55.8014 226.302 55.9954 226.725 56.1819C227.148 56.3685 227.867 56.8678 228.321 57.2916L229.148 58.0621L231.122 56.276C232.208 55.2938 233.096 54.3789 233.096 54.2432C233.096 54.1075 232.559 53.469 231.904 52.8245C231.015 51.951 230.357 51.4851 229.32 50.995C228.555 50.6332 227.56 50.2496 227.108 50.1426C226.657 50.0356 225.704 49.9169 224.991 49.8791C224.278 49.8411 223.301 49.8803 222.82 49.9664ZM9.37856 50.1342C8.9 50.2201 8.00489 50.4726 7.38945 50.6952C6.77419 50.9178 5.84316 51.3564 5.32055 51.6701C4.79795 51.9836 3.92587 52.7122 3.3826 53.2891C2.83933 53.8659 2.16715 54.8155 1.88882 55.3993C1.6105 55.9831 1.32997 56.7456 1.26543 57.0937C1.20089 57.442 1.18276 57.7268 1.22528 57.7268C1.26763 57.7268 2.43142 57.9547 3.81153 58.2332C5.19164 58.5118 6.4159 58.7397 6.53228 58.7397C6.64849 58.7397 6.9712 58.3381 7.24919 57.8473C7.52717 57.3562 8.04876 56.7551 8.40874 56.5106C8.76855 56.2665 9.36789 55.9848 9.74057 55.8846C10.1133 55.7847 10.9587 55.7025 11.6194 55.702C12.2801 55.7015 13.1792 55.8085 13.6175 55.94C14.0557 56.0713 14.6784 56.3796 15.0012 56.6251C15.324 56.8704 15.7464 57.3805 15.94 57.7587C16.1543 58.1774 16.3284 58.9254 16.385 59.6716L16.478 60.897L12.6858 60.9762C9.51849 61.0424 8.67029 61.115 7.53835 61.4168C6.79299 61.6155 5.62412 62.0514 4.94109 62.3853C4.17455 62.7598 3.26267 63.4026 2.55948 64.0636C1.9327 64.6527 1.21732 65.5058 0.969653 65.9594C0.721988 66.4128 0.402497 67.2309 0.259692 67.7774C0.116887 68.3239 0 69.3847 0 70.135C0 70.8852 0.113668 71.9341 0.252747 72.4658C0.391656 72.9974 0.70437 73.8238 0.947461 74.3019C1.19055 74.78 1.78837 75.5687 2.27591 76.0546C2.76344 76.5404 3.55489 77.1362 4.03463 77.3785C4.51437 77.6207 5.34359 77.9324 5.87704 78.0708C6.43013 78.2145 7.5785 78.3216 8.54799 78.3201C9.48342 78.3188 10.7402 78.2023 11.3409 78.0612C11.9416 77.92 12.9319 77.5603 13.5416 77.2618C14.1701 76.9541 15.1433 76.2558 15.7884 75.6498C16.859 74.6439 16.932 74.6039 17.0186 74.9745C17.0692 75.1911 17.2247 75.9241 17.3641 76.6032C17.5036 77.2826 17.6177 77.8712 17.6177 77.9116C17.6177 77.9519 18.9136 77.985 20.4975 77.985H23.3774L23.3769 69.4175C23.3767 64.3298 23.302 60.2329 23.1932 59.3306C23.0926 58.4949 22.8231 57.2504 22.5944 56.5648C22.3659 55.8792 21.8441 54.8028 21.435 54.1726C21.0261 53.5424 20.2856 52.7053 19.7898 52.3119C19.294 51.9187 18.4309 51.39 17.8718 51.1371C17.3128 50.8842 16.2837 50.5471 15.5849 50.3879C14.8861 50.2287 13.3996 50.0714 12.2816 50.0381C11.1635 50.0049 9.85712 50.0481 9.37856 50.1342ZM141.789 50.2027C141.183 50.3307 140.257 50.5971 139.731 50.7948C139.205 50.9923 138.329 51.4417 137.783 51.7933C137.238 52.145 136.422 52.842 135.971 53.3426C135.52 53.8431 134.937 54.6754 134.675 55.192C134.413 55.7087 134.111 56.4601 134.002 56.8618C133.894 57.2634 133.835 57.6221 133.872 57.6589C133.909 57.6957 135.069 57.954 136.45 58.2327C137.832 58.5116 139.063 58.7397 139.186 58.7397C139.309 58.7397 139.558 58.4549 139.738 58.1066C139.918 57.7585 140.32 57.2352 140.63 56.9438C140.941 56.6524 141.463 56.2773 141.789 56.1102C142.187 55.9061 142.891 55.7825 143.931 55.7342C145.104 55.6797 145.697 55.7337 146.368 55.956C146.856 56.1176 147.55 56.5147 147.909 56.8383C148.357 57.2413 148.643 57.6962 148.818 58.2827C148.958 58.7534 149.073 59.5343 149.073 60.0182V60.8977L145.304 60.9787C142.49 61.0393 141.256 61.1334 140.434 61.3503C139.828 61.5102 138.621 61.9803 137.752 62.3953C136.553 62.9678 135.914 63.4062 135.103 64.2142C134.421 64.894 133.85 65.668 133.522 66.3563C133.239 66.949 132.926 67.8846 132.825 68.4356C132.724 68.9865 132.643 69.7462 132.644 70.1238C132.646 70.5013 132.76 71.342 132.897 71.992C133.035 72.6419 133.373 73.6314 133.648 74.1908C133.924 74.7503 134.553 75.6086 135.047 76.0981C135.541 76.5877 136.336 77.1789 136.814 77.4122C137.292 77.6454 138.092 77.9447 138.592 78.0774C139.104 78.2131 140.284 78.3195 141.287 78.3206C142.332 78.3218 143.492 78.2165 144.083 78.0669C144.638 77.9263 145.643 77.5432 146.316 77.2159C147.053 76.8571 147.961 76.2209 148.6 75.6146C149.183 75.0614 149.668 74.6087 149.677 74.6087C149.686 74.6087 149.834 75.3683 150.005 76.2968L150.316 77.985H153.177H156.039L155.976 68.3202C155.92 59.6606 155.882 58.5412 155.61 57.558C155.442 56.9544 155.034 55.8909 154.703 55.1945C154.288 54.3199 153.783 53.611 153.07 52.902C152.387 52.2235 151.607 51.6649 150.767 51.2538C150.068 50.9118 148.963 50.5155 148.311 50.373C147.659 50.2306 146.172 50.0817 145.007 50.042C143.592 49.9939 142.525 50.0471 141.789 50.2027ZM175.122 50.2236C174.589 50.3526 173.75 50.6585 173.259 50.9036C172.768 51.1488 171.964 51.6549 171.474 52.0285C170.983 52.4019 170.24 53.1606 169.822 53.7145L169.062 54.7215V52.5945V50.4676H165.59H162.117V64.3371V78.2063L164.531 78.0963C165.859 78.0358 167.383 77.986 167.919 77.9857L168.893 77.985L168.893 73.1315C168.894 70.4621 168.97 67.2831 169.063 66.0671C169.156 64.8511 169.385 63.2558 169.571 62.5219C169.757 61.7881 170.179 60.6384 170.51 59.9672C170.841 59.2943 171.485 58.3632 171.946 57.8914C172.413 57.4138 173.214 56.8342 173.76 56.5795C174.607 56.1838 174.952 56.123 176.347 56.123C177.591 56.123 178.086 56.1937 178.529 56.4343C178.902 56.6371 179.14 56.6842 179.211 56.5697C179.271 56.4728 179.576 55.0956 179.889 53.5092C180.201 51.9226 180.412 50.5802 180.358 50.5258C180.303 50.4713 179.817 50.3232 179.277 50.1966C178.737 50.07 177.799 49.9716 177.194 49.9778C176.588 49.9841 175.656 50.0947 175.122 50.2236ZM25.9607 50.6751C26.0055 50.7931 28.0135 57.024 30.4231 64.5217L34.8042 78.1538H37.8019H40.7994L40.9746 77.6052C41.0708 77.3033 42.147 73.3375 43.3659 68.792C44.5847 64.2466 45.6059 60.5037 45.635 60.4747C45.6641 60.4456 46.2479 62.4932 46.9323 65.0252C47.6167 67.5569 48.681 71.4897 49.2975 73.7646L50.418 77.9006L53.4688 77.9465L56.5197 77.9925L60.3912 65.9604C62.5204 59.3427 64.5092 53.1496 64.8104 52.198L65.3582 50.4676H61.9295H58.5008L56.0706 59.7511C54.734 64.857 53.5969 68.9915 53.5433 68.9392C53.4898 68.8867 52.4124 64.7282 51.149 59.6979L48.8519 50.552L45.7056 50.5061L42.5593 50.4603L40.2128 59.8409C38.9221 65.0003 37.8319 69.1232 37.7899 69.003C37.7478 68.8828 36.6349 64.6821 35.3168 59.6682L32.9201 50.552L29.3998 50.5062C26.6087 50.4701 25.8964 50.5051 25.9607 50.6751ZM73.1119 59.5416C71.9145 64.5324 70.8832 68.7559 70.8202 68.9272C70.7431 69.1367 70.105 67.5331 68.8723 64.0315C67.8642 61.1675 66.9789 58.7581 66.9054 58.6774C66.8317 58.5967 66.3787 59.7742 65.8988 61.2941C65.4187 62.814 64.8322 64.6652 64.5954 65.408L64.1646 66.7586L65.9267 72.414L67.6888 78.0694L70.742 78.1154L73.7951 78.1613L76.1562 69.3094C77.455 64.4409 78.5395 60.4792 78.5664 60.5055C78.5932 60.5319 79.6687 64.4946 80.9563 69.3115L83.2975 78.0694L86.2879 78.1155C89.2563 78.1613 89.2794 78.1589 89.4454 77.7779C89.5372 77.5669 91.4821 71.5446 93.7671 64.3951C96.0522 57.2457 97.9923 51.1871 98.0784 50.9318L98.2351 50.4676L94.7288 50.4689L91.2226 50.4703L88.8587 59.7535C87.5588 64.859 86.4431 68.9797 86.3794 68.9103C86.3159 68.8411 85.2642 64.702 84.0423 59.7126C82.8204 54.723 81.8208 50.6018 81.8208 50.5542C81.8208 50.5066 80.3511 50.4676 78.5549 50.4676H75.289L73.1119 59.5416ZM105.97 59.5416C104.773 64.5324 103.742 68.7581 103.679 68.9323C103.603 69.146 102.94 67.4789 101.639 63.7999L99.7128 58.3507L99.3474 59.4315C99.1463 60.0259 98.5429 61.9211 98.0064 63.643L97.0308 66.7738L98.7873 72.4216L100.544 78.0694L103.594 78.1154L106.645 78.1611L109.011 69.3066C110.313 64.4365 111.398 60.4723 111.422 60.4971C111.447 60.5218 112.521 64.4858 113.809 69.3057L116.15 78.0694L119.148 78.1155C121.885 78.1577 122.156 78.1356 122.267 77.8623C122.333 77.6977 124.338 71.4855 126.721 64.0575L131.056 50.552L127.668 50.5062C125.596 50.4782 124.243 50.5243 124.183 50.6251C124.13 50.7156 123.021 54.8937 121.719 59.9098C120.418 64.9257 119.302 68.9747 119.24 68.9071C119.178 68.8396 118.128 64.7167 116.906 59.745C115.684 54.7733 114.685 50.6519 114.685 50.5866C114.685 50.5211 113.214 50.4676 111.416 50.4676H108.148L105.97 59.5416ZM198.419 56.4365C198.927 56.6842 199.701 57.2681 200.138 57.7342C200.576 58.2003 201.121 58.9906 201.351 59.4904C201.581 59.9903 201.879 60.9185 202.014 61.5531C202.149 62.1877 202.26 63.4356 202.262 64.3259C202.264 65.3829 202.151 66.3882 201.937 67.2218C201.757 67.9241 201.409 68.8926 201.165 69.3739C200.92 69.8551 200.398 70.5692 200.006 70.9605C199.613 71.3518 198.916 71.8534 198.456 72.0752C197.853 72.3662 197.242 72.4974 196.258 72.5469C195.159 72.6022 194.71 72.5455 193.93 72.2525C193.399 72.0527 192.593 71.5564 192.138 71.1494C191.684 70.7424 191.078 69.9678 190.791 69.4281C190.504 68.8884 190.182 68.1213 190.076 67.7236C189.969 67.3258 189.811 66.3771 189.724 65.6152C189.625 64.7449 189.626 63.7008 189.728 62.807C189.817 62.0246 190.048 60.9112 190.241 60.3327C190.434 59.7543 190.877 58.8744 191.224 58.3772C191.571 57.8802 192.225 57.2262 192.676 56.9241C193.128 56.6219 193.85 56.2618 194.281 56.1239C194.772 55.9669 195.52 55.8943 196.281 55.9297C197.169 55.9711 197.744 56.1071 198.419 56.4365ZM16.3657 67.4627C16.3035 67.9893 16.1134 68.7338 15.9434 69.1173C15.7731 69.5007 15.392 70.0889 15.0965 70.4243C14.8009 70.7598 14.1992 71.2625 13.7591 71.5416C13.3192 71.8206 12.5111 72.1773 11.9635 72.3342C11.3318 72.5151 10.5857 72.5952 9.92335 72.5531C9.1995 72.5072 8.71891 72.3732 8.35673 72.1162C8.06926 71.9123 7.69691 71.459 7.52921 71.109C7.36133 70.7589 7.22869 70.1253 7.23411 69.7009C7.2397 69.2765 7.36082 68.7068 7.50312 68.4348C7.64559 68.1628 7.99421 67.7205 8.27779 67.4519C8.5612 67.1833 9.15885 66.8656 9.60573 66.7459C10.1165 66.609 11.5433 66.5239 13.4484 66.5167L16.4785 66.5054L16.3657 67.4627ZM149.022 67.4536C148.968 67.9751 148.727 68.8025 148.487 69.2922C148.246 69.782 147.703 70.5016 147.278 70.8914C146.854 71.2812 146.086 71.7921 145.572 72.0267C144.905 72.3308 144.24 72.477 143.255 72.5354C142.004 72.6097 141.818 72.5795 141.285 72.2162C140.961 71.9957 140.516 71.551 140.296 71.2282C139.958 70.7331 139.906 70.4799 139.96 69.6066C140.01 68.7981 140.126 68.438 140.491 67.9604C140.749 67.6241 141.182 67.2345 141.453 67.0945C141.725 66.9546 142.236 66.7723 142.588 66.6897C142.94 66.607 144.554 66.5317 146.175 66.5222L149.121 66.5054L149.022 67.4536ZM241.986 69.3316C241.518 69.4983 240.903 69.8 240.618 70.0019C240.334 70.2038 239.902 70.6583 239.658 71.0116C239.414 71.3651 239.124 72.0197 239.013 72.4663C238.901 72.9129 238.853 73.6898 238.905 74.1929C238.96 74.7218 239.2 75.4737 239.474 75.9757C239.735 76.4532 240.183 77.0223 240.47 77.2404C240.757 77.4585 241.292 77.7634 241.66 77.9178C242.041 78.078 242.802 78.2025 243.43 78.2074C244.219 78.2134 244.771 78.1089 245.378 77.8382C245.844 77.6305 246.444 77.2556 246.712 77.0052C246.98 76.7548 247.379 76.1702 247.6 75.706C247.902 75.069 248 74.5719 248 73.6802C248 72.7966 247.9 72.2852 247.605 71.6531C247.388 71.1882 246.918 70.5519 246.56 70.2393C246.203 69.9265 245.657 69.565 245.347 69.4359C245.037 69.3067 244.345 69.1622 243.81 69.1146C243.119 69.0532 242.59 69.116 241.986 69.3316ZM52.9662 87.045C52.904 87.1068 52.8532 88.8921 52.8532 91.0123V94.8669H53.7002H54.5472V93.1787V91.4905H56.2412H57.9352V93.1787V94.8669H58.7853H59.6355L59.5899 90.9419L59.5445 87.0168L58.7399 86.9653L57.9352 86.9138V88.6113V90.3088H56.2412H54.5472V88.6206V86.9324H53.8132C53.4093 86.9324 53.0282 86.9831 52.9662 87.045ZM64.2878 87.2409C63.9151 87.4161 63.3896 87.7792 63.1201 88.0478C62.8506 88.3164 62.4901 88.8401 62.3192 89.2115C62.1245 89.6342 62.0069 90.2835 62.0046 90.9473C62.0025 91.5305 62.1037 92.2522 62.2292 92.551C62.3549 92.8498 62.6695 93.3445 62.9282 93.6504C63.187 93.9561 63.6938 94.3564 64.0545 94.5399C64.4152 94.7232 65.0462 94.9191 65.4568 94.9751C65.8674 95.0313 66.6045 94.9813 67.0946 94.864C67.789 94.6981 68.1816 94.4604 68.8719 93.7883C69.6137 93.0659 69.7921 92.7708 69.9675 91.9754C70.0871 91.4326 70.1279 90.7001 70.0627 90.2669C70 89.8498 69.7271 89.1607 69.4565 88.7352C69.1858 88.31 68.6419 87.7493 68.2479 87.4895C67.6475 87.0935 67.3229 87.0092 66.2482 86.9696C65.2694 86.9336 64.8048 86.9979 64.2878 87.2409ZM72.5037 90.8997V94.8669H73.266H74.0283L74.0339 92.208C74.0393 89.6659 74.0524 89.5651 74.3304 89.9134C74.4903 90.1138 75.2943 91.3104 76.1169 92.5723L77.6125 94.8669H78.4462H79.2798V90.8997V86.9324H78.437H77.5944L77.5476 89.5677L77.5011 92.2029L75.807 89.5759L74.113 86.9491L73.3084 86.9409L72.5037 86.9324V90.8997ZM83.9027 87.2846C83.5104 87.478 82.9246 87.9284 82.6011 88.2853C82.2775 88.6422 81.9319 89.2246 81.833 89.5793C81.7342 89.9342 81.6529 90.6145 81.6524 91.0914C81.6517 91.7122 81.7854 92.2156 82.1235 92.864C82.4461 93.4827 82.8487 93.9396 83.395 94.3062C83.939 94.6712 84.4977 94.8806 85.1424 94.9609C85.736 95.0349 86.3528 95.0026 86.7929 94.8747C87.1795 94.7622 87.7864 94.473 88.1417 94.2318C88.4969 93.9906 88.9785 93.4687 89.2119 93.0718C89.4581 92.6533 89.6766 91.9593 89.7327 91.4184C89.7888 90.8758 89.7403 90.17 89.6165 89.7294C89.4994 89.3131 89.1311 88.655 88.7981 88.2671C88.4649 87.8792 87.8832 87.4218 87.5052 87.2508C87.0677 87.0528 86.4183 86.9385 85.717 86.9363C84.9366 86.9338 84.4082 87.0351 83.9027 87.2846ZM92.1543 90.8819V94.8669H93.0013H93.8483V93.3475C93.8483 92.1626 93.9001 91.8282 94.0839 91.8282C94.2135 91.8282 94.7256 92.5119 95.2221 93.3475L96.1247 94.8669H97.1052H98.0857L97.2158 93.4741C96.7374 92.708 96.2782 91.9961 96.1955 91.892C96.0954 91.766 96.2108 91.6342 96.5392 91.4986C96.8111 91.3864 97.2062 91.1114 97.4172 90.8873C97.6884 90.5998 97.8204 90.2195 97.867 89.5927C97.9173 88.9138 97.8526 88.5779 97.592 88.1646C97.4047 87.8673 97.0002 87.4904 96.6932 87.3268C96.279 87.106 95.6224 87.0123 94.1447 86.9631L92.1543 86.8968V90.8819ZM101.599 90.5198C100.901 92.493 100.277 94.2782 100.212 94.487C100.1 94.8458 100.14 94.8669 100.933 94.8669C101.757 94.8669 101.779 94.8532 102.047 94.1854L102.321 93.5037L103.872 93.5523L105.423 93.6008L105.621 94.1916C105.811 94.7561 105.859 94.7849 106.712 94.8341C107.203 94.8625 107.577 94.8186 107.545 94.7367C107.512 94.6547 106.878 92.8652 106.136 90.76L104.788 86.9324H103.828H102.867L101.599 90.5198ZM109.772 90.8997V94.8669H112.034C114.108 94.8669 114.343 94.835 114.869 94.482C115.184 94.2703 115.541 93.9093 115.663 93.6801C115.786 93.4475 115.849 92.9748 115.806 92.6111C115.758 92.2051 115.551 91.7753 115.259 91.4716C115.002 91.2035 114.678 90.9841 114.54 90.9841C114.4 90.9841 114.582 90.7317 114.953 90.4124C115.545 89.9023 115.616 89.7576 115.616 89.0653C115.616 88.4234 115.526 88.1994 115.093 87.7681C114.806 87.4814 114.272 87.1779 113.907 87.0936C113.543 87.0094 112.463 86.9387 111.508 86.9365L109.772 86.9324V90.8997ZM118.355 87.045C118.293 87.1068 118.242 88.8921 118.242 91.0123V94.8669H120.36H122.477V94.276V93.6852H121.207H119.936V90.3088V86.9324H119.202C118.798 86.9324 118.417 86.9831 118.355 87.045ZM124.679 90.8997V94.8669H126.966H129.253V94.276V93.6852H127.813H126.373V92.5878V91.4905H127.644H128.914V90.8997V90.3088H127.644H126.373V89.2959V88.283H127.813H129.253V87.6077V86.9324H126.966H124.679V90.8997ZM136.537 90.8997V94.8669H137.38H138.222L138.269 92.5728L138.316 90.2787L139.274 92.5306L140.232 94.7825L140.888 94.8326L141.544 94.8826L142.556 92.4916L143.568 90.1005L143.614 92.4837L143.662 94.8669H144.419H145.177V90.8909V86.9147L144.297 86.9658L143.418 87.0168L142.222 89.7481C141.565 91.2503 140.985 92.5203 140.933 92.5703C140.882 92.6203 140.282 91.3722 139.599 89.7968L138.358 86.9324H137.448H136.537V90.8997ZM148.057 90.8997V94.8669H150.344H152.631V94.276V93.6852H151.191H149.751V92.5878V91.4905H151.021H152.292V90.8997V90.3088H151.021H149.751V89.2959V88.283H151.191H152.631V87.6077V86.9324H150.344H148.057V90.8997ZM155.341 90.8997V94.8669H156.188H157.035L157.039 92.208L157.044 89.5491L158.776 92.2023L160.508 94.8554L161.397 94.8612L162.286 94.8669V90.8997V86.9324H161.439H160.592L160.591 89.6757L160.59 92.419L158.796 89.6757L157.002 86.9324H156.172H155.341V90.8997ZM164.555 87.1733C164.504 87.3058 164.487 87.5908 164.518 87.8064C164.568 88.1624 164.671 88.2031 165.632 88.2489L166.691 88.299V91.583V94.8669H167.538H168.385V91.5749V88.283H169.401H170.418V87.6077V86.9324H167.533C165.19 86.9324 164.63 86.9777 164.555 87.1733ZM172.789 90.8904V94.8669H173.639H174.49L174.444 90.9419L174.399 87.0168L173.594 86.9653L172.789 86.9138V90.8904ZM178.865 87.4039C178.164 87.7677 177.83 88.0844 177.405 88.7893C176.928 89.5824 176.855 89.8552 176.855 90.8554C176.855 91.4892 176.958 92.2522 177.083 92.551C177.209 92.8498 177.524 93.3445 177.782 93.6504C178.041 93.9561 178.567 94.3717 178.951 94.5738C179.476 94.8498 179.945 94.9413 180.836 94.9413C181.72 94.9413 182.194 94.85 182.699 94.5819C183.072 94.3842 183.578 94.0066 183.823 93.7429C184.069 93.479 184.385 93.0342 184.527 92.7545C184.668 92.4747 184.837 91.8933 184.902 91.4623C184.983 90.9251 184.932 90.3782 184.74 89.7213C184.541 89.0378 184.257 88.561 183.75 88.0556C183.34 87.6477 182.742 87.2596 182.341 87.1401C181.957 87.0258 181.223 86.9324 180.708 86.9324C180.015 86.9324 179.539 87.0541 178.865 87.4039ZM187.358 90.8997V94.8669H188.116H188.874L188.92 92.2114L188.967 89.556L190.705 92.2114L192.442 94.8669H193.288H194.134V90.8997V86.9324H193.291H192.448L192.402 89.5776L192.355 92.223L190.627 89.5776L188.899 86.9324H188.128H187.358V90.8997ZM95.9101 88.5624C96.0805 88.716 96.2199 89.0708 96.2199 89.3509C96.2199 89.631 96.0937 89.999 95.9395 90.1688C95.7346 90.3946 95.4157 90.4776 94.7537 90.4776H93.8483V89.3803V88.283H94.7243C95.3017 88.283 95.7059 88.3782 95.9101 88.5624ZM113.697 88.5624C113.868 88.716 114.007 89.0053 114.007 89.2054C114.007 89.4053 113.903 89.7108 113.776 89.8842C113.607 90.1146 113.264 90.2198 112.505 90.2745L111.466 90.3493V89.3161V88.283H112.427C113.083 88.283 113.486 88.3716 113.697 88.5624ZM67.274 88.7161C67.5814 88.8747 67.916 89.2636 68.109 89.6869C68.2858 90.0753 68.4322 90.6591 68.434 90.9841C68.4361 91.309 68.3043 91.8354 68.1413 92.1538C67.9785 92.4722 67.648 92.8765 67.407 93.0524C67.1661 93.2283 66.6679 93.4125 66.2999 93.4616C65.8874 93.5169 65.3909 93.4512 65.0053 93.2906C64.6613 93.1475 64.2217 92.7788 64.0284 92.4714C63.7411 92.0149 63.6874 91.7007 63.7348 90.754C63.7894 89.6653 63.8306 89.5611 64.4189 89.0236C64.9583 88.5311 65.1641 88.4518 65.903 88.4518C66.3748 88.4518 66.9917 88.5708 67.274 88.7161ZM87.04 88.7938C87.3485 88.9812 87.7105 89.3962 87.8447 89.7162C87.9789 90.0361 88.0886 90.6081 88.0886 90.9871C88.0886 91.3661 87.9816 91.8812 87.8506 92.132C87.7197 92.3827 87.4173 92.7697 87.1786 92.992C86.883 93.267 86.4859 93.4186 85.9344 93.4665C85.3535 93.5172 84.96 93.4468 84.5443 93.2182C84.2254 93.0428 83.8251 92.6405 83.6549 92.3241C83.4706 91.9818 83.3454 91.3994 83.3454 90.885C83.3454 90.2652 83.4545 89.8597 83.7316 89.4498C83.9441 89.1358 84.3063 88.7838 84.5363 88.6677C84.7665 88.5517 85.2978 88.456 85.717 88.4548C86.1863 88.4538 86.695 88.584 87.04 88.7938ZM182.112 88.7079C182.385 88.8487 182.718 89.1742 182.851 89.4311C182.985 89.6882 183.145 90.1685 183.207 90.4987C183.269 90.8289 183.236 91.4095 183.133 91.789C183.025 92.1901 182.733 92.6577 182.437 92.9064C182.156 93.1416 181.647 93.3865 181.305 93.4505C180.915 93.5233 180.432 93.4785 180.012 93.3305C179.644 93.2006 179.196 92.8983 179.019 92.6587C178.841 92.4194 178.628 91.9251 178.546 91.5607C178.459 91.1747 178.46 90.6164 178.548 90.2235C178.646 89.7924 178.917 89.3512 179.3 89.0004C179.811 88.5323 180.025 88.4518 180.757 88.4518C181.229 88.4518 181.838 88.5671 182.112 88.7079ZM104.355 90.562C104.566 91.212 104.775 91.8388 104.818 91.9548C104.875 92.1091 104.617 92.1658 103.861 92.1658C103.292 92.1658 102.827 92.1133 102.827 92.0493C102.827 91.9852 103.033 91.3018 103.285 90.5306C103.537 89.7595 103.794 89.1853 103.857 89.2545C103.919 89.3237 104.143 89.9121 104.355 90.562ZM113.838 91.8282C114.024 92.0139 114.176 92.3557 114.176 92.5878C114.176 92.82 114.024 93.1618 113.838 93.3475C113.574 93.6102 113.273 93.6852 112.482 93.6852H111.466V92.5878V91.4905H112.482C113.273 91.4905 113.574 91.5655 113.838 91.8282Z" fill="#D5D1CF"></path></svg>