<svg xmlns="http://www.w3.org/2000/svg" width="231" height="96" viewBox="0 0 231 96" fill="none"><path fill-rule="evenodd" clip-rule="evenodd" d="M114.827 0.724897C114.563 1.12358 114.184 1.88658 113.984 2.42049L113.621 3.39134L114.043 4.86448C114.276 5.67466 114.466 6.47511 114.466 6.64292C114.466 6.81089 114.274 7.09949 114.039 7.28416C113.804 7.46899 113.452 7.62026 113.256 7.62026C113.061 7.62026 112.749 7.45602 112.563 7.25546C112.377 7.0549 112.118 6.6353 111.987 6.32319L111.75 5.75573L111.232 6.89066C110.947 7.51487 110.564 8.46335 110.381 8.99839C110.198 9.53343 110.012 10.4513 109.967 11.038C109.902 11.9009 109.954 12.2568 110.239 12.9009C110.433 13.339 110.814 14.0445 111.086 14.4689C111.359 14.8932 111.641 15.2405 111.714 15.2405C111.786 15.2405 111.808 14.5657 111.762 13.7408C111.679 12.2745 111.689 12.2248 112.171 11.5115C112.443 11.1102 113.535 9.85867 114.597 8.73022C115.659 7.60177 116.701 6.39923 116.912 6.05778C117.223 5.55338 117.293 5.22409 117.285 4.29945C117.28 3.67361 117.152 2.78918 117 2.33391C116.849 1.87864 116.51 1.16736 116.248 0.753108C115.985 0.338858 115.666 0 115.539 0C115.411 0 115.091 0.326212 114.827 0.724897ZM103.563 0.824285C103.229 0.903081 102.5 1.19752 101.942 1.47865C101.384 1.75963 100.518 2.31121 100.017 2.70422C99.5162 3.09739 98.8878 3.6908 98.6207 4.02317C98.3537 4.35538 97.9881 4.91766 97.8084 5.27257C97.6286 5.62748 97.4303 6.15506 97.3679 6.44479C97.2601 6.94416 97.2786 6.97172 97.724 6.97172C97.9824 6.97172 98.5901 6.85596 99.0744 6.71458C99.5588 6.57304 100.406 6.20759 100.957 5.90229C101.508 5.597 102.359 4.98219 102.847 4.53616C103.335 4.09013 103.958 3.37626 104.231 2.95001C104.505 2.52376 104.835 1.87377 104.965 1.50573C105.174 0.913458 105.173 0.825582 104.956 0.742407C104.822 0.690849 104.59 0.655828 104.441 0.664746C104.292 0.673825 103.897 0.745488 103.563 0.824285ZM125.327 1.28928C125.409 1.5761 125.671 2.15118 125.908 2.56722C126.146 2.98325 126.808 3.77154 127.378 4.31874C127.949 4.86594 128.935 5.58662 129.57 5.92013C130.205 6.25364 131.097 6.62573 131.553 6.74717C132.009 6.86861 132.546 6.96881 132.746 6.96978C132.993 6.97108 133.111 6.87526 133.111 6.6734C133.111 6.50932 132.878 5.9091 132.594 5.33985C132.276 4.70364 131.662 3.89022 131.001 3.22921C130.258 2.48599 129.543 1.96473 128.688 1.54205C127.728 1.06765 127.196 0.912323 126.314 0.849253L125.177 0.767863L125.327 1.28928ZM94.7668 1.16444C94.5885 1.25848 94.1653 1.52146 93.8266 1.74909C93.4877 1.97673 92.8488 2.61748 92.4066 3.17311C91.9645 3.72874 91.2808 4.79249 90.8875 5.53701C90.494 6.28152 90.0074 7.43786 89.806 8.10666C89.6048 8.77546 89.4347 9.77501 89.4283 10.3279C89.4214 10.9072 89.4986 11.4151 89.6103 11.527C89.7608 11.6775 90.0612 11.4727 90.9518 10.6131C91.5828 10.0038 92.4692 8.92851 92.9214 8.22355C93.3738 7.51844 93.9498 6.44171 94.2018 5.83079C94.4537 5.21988 94.7803 4.22341 94.9273 3.61654C95.0744 3.00968 95.1713 2.17113 95.143 1.75331C95.095 1.05062 95.0666 1.00636 94.7668 1.16444ZM135.132 1.87004C135.194 2.36714 135.389 3.29892 135.566 3.94048C135.744 4.58221 136.201 5.76383 136.583 6.56639C136.965 7.36895 137.612 8.46335 138.02 8.99839C138.428 9.53343 139.201 10.4025 139.738 10.9294L140.712 11.8876L140.825 11.4378C140.887 11.1904 140.894 10.4673 140.839 9.8311C140.785 9.19473 140.621 8.27284 140.475 7.78239C140.329 7.29194 139.967 6.37913 139.671 5.75378C139.375 5.12859 138.767 4.13537 138.322 3.54666C137.876 2.95796 137.154 2.21377 136.717 1.89307C136.28 1.57253 135.72 1.2327 135.471 1.13817L135.019 0.966313L135.132 1.87004ZM117.966 4.94457C117.909 5.17513 117.713 5.76124 117.531 6.24715C117.268 6.94903 116.79 7.56432 115.203 9.24029C114.104 10.4007 113.091 11.5915 112.951 11.8868C112.811 12.1822 112.647 12.7279 112.588 13.0999C112.501 13.6433 112.562 13.9446 112.9 14.6348C113.131 15.1071 113.527 15.6914 113.779 15.9333C114.081 16.2229 114.555 16.4367 115.165 16.5591C115.934 16.7137 116.277 16.6999 117.184 16.4778C117.785 16.3305 118.459 16.0766 118.681 15.9135C118.904 15.7504 119.349 15.2438 119.67 14.7875C119.991 14.3314 120.38 13.5576 120.534 13.0678C120.688 12.5778 120.79 12.009 120.761 11.8038C120.714 11.4721 120.647 11.5176 120.165 12.2128C119.866 12.6431 119.392 13.1352 119.111 13.3066C118.83 13.4778 118.366 13.6182 118.079 13.6185C117.729 13.619 117.503 13.5161 117.39 13.3056C117.298 13.1331 117.222 12.9235 117.222 12.8398C117.222 12.7561 117.595 12.2224 118.05 11.6536C118.505 11.085 119.009 10.361 119.171 10.0446C119.333 9.72847 119.514 9.21143 119.573 8.8956C119.632 8.57992 119.601 7.89021 119.504 7.36295C119.407 6.8357 119.128 6.0059 118.883 5.51885C118.638 5.03196 118.356 4.60928 118.255 4.57961C118.154 4.54994 118.024 4.71418 117.966 4.94457ZM84.0253 7.33652C83.8381 7.53708 83.495 8.08088 83.2628 8.54474C83.0306 9.00877 82.6924 9.95724 82.5113 10.6525C82.3302 11.3479 82.1394 12.5869 82.0875 13.4058C82.0291 14.3241 82.0697 15.2846 82.1929 15.9113C82.303 16.4703 82.5416 17.244 82.7234 17.6307C83.0417 18.3079 83.0652 18.3233 83.3638 18.053C83.5342 17.8988 83.8838 17.3306 84.1404 16.7903C84.3973 16.25 84.7197 15.3702 84.8574 14.8352C84.995 14.3001 85.1847 13.1809 85.2791 12.3481C85.3944 11.3307 85.3988 10.42 85.2924 9.57266C85.2055 8.87906 85.0137 8.01003 84.8663 7.64166C84.7189 7.27313 84.5459 6.97172 84.4821 6.97172C84.418 6.97172 84.2126 7.13597 84.0253 7.33652ZM145.478 7.57972C145.299 7.9943 145.193 8.83236 145.147 10.2144C145.093 11.8454 145.148 12.5733 145.428 13.9434C145.619 14.8798 146 16.1357 146.274 16.7344C146.549 17.3332 146.899 17.9368 147.053 18.0761C147.277 18.2789 147.366 18.2881 147.5 18.1224C147.593 18.0088 147.8 17.5509 147.961 17.105C148.19 16.4711 148.255 15.7994 148.258 14.0245C148.262 12.1503 148.199 11.5337 147.899 10.4863C147.699 9.78863 147.381 8.91538 147.193 8.54555C147.004 8.17589 146.7 7.67052 146.516 7.42262C146.333 7.17455 146.084 6.97172 145.962 6.97172C145.841 6.97172 145.623 7.24541 145.478 7.57972ZM94.4425 10.5575C93.9075 10.6353 93.0416 10.8433 92.5182 11.0199C91.995 11.1966 91.2471 11.5283 90.8563 11.7574C90.4657 11.9863 90.146 12.2278 90.146 12.2941C90.146 12.3602 90.3466 12.5324 90.5919 12.6769C90.8372 12.8213 91.4755 13.0738 92.0105 13.2378C92.792 13.4776 93.5096 13.5354 95.6585 13.5311C97.6414 13.5273 98.6275 13.453 99.4687 13.244C100.093 13.089 100.99 12.7746 101.463 12.5452C101.936 12.3158 102.298 12.0441 102.267 11.9414C102.237 11.8386 101.805 11.5496 101.308 11.2991C100.81 11.0484 99.8283 10.7408 99.1254 10.6157C98.4224 10.4903 97.3001 10.3942 96.6313 10.402C95.9625 10.4098 94.9776 10.4796 94.4425 10.5575ZM132.463 10.479C132.151 10.5153 131.385 10.6543 130.76 10.7879C130.136 10.9213 129.228 11.2576 128.743 11.5353L127.861 12.04L128.445 12.3398C128.767 12.5047 129.674 12.8379 130.463 13.0803C131.783 13.4864 132.112 13.5209 134.652 13.5209C137.201 13.5209 137.517 13.4874 138.864 13.0736C139.664 12.8276 140.357 12.588 140.404 12.5413C140.45 12.4946 140.306 12.3061 140.083 12.1224C139.86 11.9387 139.3 11.6139 138.839 11.4007C138.378 11.1873 137.503 10.9117 136.894 10.788C136.285 10.6643 135.166 10.5292 134.408 10.4879C133.65 10.4466 132.775 10.4425 132.463 10.479ZM75.5951 15.9315C75.3303 16.3492 74.9259 17.2584 74.6967 17.9522C74.4673 18.6461 74.1947 19.8519 74.091 20.6319C73.9501 21.6915 73.9481 22.3945 74.0835 23.4117C74.1832 24.1606 74.3804 25.1639 74.5219 25.641C74.6634 26.1183 74.916 26.7776 75.0834 27.1061C75.2507 27.4345 75.5506 27.8177 75.7501 27.9573C75.9746 28.1145 76.4591 28.2112 77.0234 28.2112C77.5243 28.2112 78.4749 28.0727 79.1356 27.9034C79.7964 27.734 80.7511 27.4122 81.2571 27.1881C81.7631 26.9639 82.6021 26.4917 83.1216 26.1388C83.6411 25.786 84.4538 25.1483 84.9279 24.7217C85.402 24.2953 86.0747 23.527 86.423 23.0141C86.9432 22.2479 87.0165 22.0491 86.8345 21.898C86.6707 21.7622 86.3231 21.7605 85.5017 21.8917C84.8905 21.9893 83.8433 22.2521 83.1743 22.4757C82.5055 22.6993 81.5092 23.1325 80.9604 23.4383C80.4115 23.7441 79.5725 24.2961 79.0958 24.6652C78.6192 25.0342 77.7631 25.7822 77.1932 26.3277C76.6235 26.8732 76.2039 27.186 76.2608 27.0229C76.3177 26.8599 76.5054 26.1668 76.6778 25.4826C76.8503 24.7986 77.0794 23.6247 77.187 22.8739C77.301 22.0791 77.3417 20.8939 77.2845 20.0366C77.2305 19.2269 77.0414 18.0013 76.8646 17.3131C76.6877 16.625 76.438 15.8618 76.3097 15.6171L76.0766 15.1721L75.5951 15.9315ZM153.985 16.0038C153.85 16.342 153.606 17.2023 153.442 17.9157C153.246 18.7742 153.148 19.8157 153.154 20.9962C153.161 22.2283 153.268 23.2064 153.502 24.1599C153.688 24.9191 154.015 26.0094 154.23 26.5827C154.444 27.1562 154.693 27.6495 154.782 27.6792C154.87 27.7089 155.137 27.3776 155.373 26.9431C155.61 26.5088 155.925 25.6496 156.074 25.034C156.255 24.288 156.341 23.2656 156.334 21.969C156.326 20.5499 156.233 19.6802 155.989 18.7548C155.805 18.0571 155.46 17.1284 155.222 16.6911C154.984 16.254 154.663 15.782 154.509 15.6426C154.25 15.4083 154.211 15.4356 153.985 16.0038ZM89.8401 15.8055C89.2705 15.9344 88.4315 16.1608 87.9755 16.3086C87.5196 16.4565 86.6521 16.834 86.0478 17.1474C85.4435 17.4608 84.641 17.9918 84.2643 18.3272C83.8877 18.6628 83.6211 18.98 83.6717 19.032C83.7225 19.0842 84.3426 19.2087 85.0498 19.3089C85.7644 19.4101 86.9431 19.4459 87.7023 19.3893C88.454 19.3332 89.5377 19.1787 90.1107 19.0459C90.6836 18.913 91.6373 18.6121 92.2299 18.3771C92.8227 18.142 93.873 17.6257 94.5641 17.2296C95.2553 16.8333 95.8207 16.4505 95.8207 16.3789C95.8207 16.3072 95.5105 16.1204 95.1316 15.9638C94.6577 15.7681 93.8856 15.6622 92.6591 15.6253C91.5019 15.5902 90.5119 15.6536 89.8401 15.8055ZM135.673 15.8112C135.254 15.9461 134.861 16.1363 134.801 16.2339C134.741 16.3315 134.901 16.5823 135.158 16.7915C135.414 17.0005 136.042 17.3969 136.553 17.6725C137.063 17.9481 137.902 18.3197 138.417 18.4986C138.932 18.6774 139.829 18.9248 140.41 19.0485C140.991 19.1722 142.013 19.323 142.68 19.3835C143.391 19.4479 144.397 19.4153 145.109 19.3049C145.777 19.2011 146.397 19.0408 146.487 18.9483C146.597 18.8344 146.417 18.5727 145.93 18.1367C145.534 17.7828 144.686 17.2411 144.046 16.933C143.405 16.625 142.306 16.2206 141.604 16.0345C140.77 15.8137 139.65 15.6734 138.381 15.6311C136.941 15.5831 136.237 15.63 135.673 15.8112ZM103.596 17.0102C103.699 17.2039 104.679 18.6907 105.774 20.3143C106.868 21.9377 108.843 24.7983 110.162 26.6709C111.482 28.5435 113.218 30.9747 114.021 32.0735C114.824 33.1721 115.537 34.0112 115.606 33.938C115.675 33.8647 116.747 32.382 117.987 30.6432C119.227 28.9043 121.304 25.9494 122.602 24.0768C123.9 22.2041 125.518 19.824 126.199 18.7877C126.88 17.7513 127.437 16.8481 127.437 16.7806C127.437 16.713 126.908 16.7085 126.261 16.7702C125.615 16.8322 124.539 16.9911 123.87 17.1234C123.201 17.2558 122.315 17.4734 121.9 17.607C121.38 17.7747 120.9 18.1112 120.351 18.6935C119.914 19.1575 118.661 20.7999 117.566 22.3434C115.991 24.5638 115.531 25.1122 115.36 24.9703C115.241 24.8715 114.318 23.6087 113.308 22.1639C112.299 20.7192 111.107 19.1624 110.659 18.7043C110.032 18.0634 109.64 17.8132 108.953 17.6175C108.463 17.4778 107.442 17.2568 106.684 17.1264C105.926 16.9961 104.878 16.8374 104.356 16.7738C103.418 16.6595 103.409 16.6623 103.596 17.0102ZM112.385 17.9932C112.415 18.0803 113.054 19.0361 113.805 20.1168C114.556 21.1976 115.271 22.1205 115.394 22.1675C115.516 22.2145 115.724 22.1161 115.856 21.9488C115.988 21.7816 116.605 20.8857 117.227 19.9579C117.848 19.0301 118.357 18.2001 118.357 18.1133C118.357 18.0179 118.021 17.9966 117.506 18.0595C117.038 18.1168 116.181 18.2067 115.601 18.2593C114.878 18.3249 114.234 18.2732 113.551 18.0949C113.003 17.9517 112.504 17.8346 112.443 17.8346C112.381 17.8346 112.355 17.906 112.385 17.9932ZM143.489 21.8474C143.49 21.9142 143.701 22.3359 143.958 22.7844C144.216 23.2329 144.939 24.0834 145.566 24.6747C146.193 25.266 147.223 26.0574 147.856 26.4335C148.489 26.8095 149.644 27.3391 150.422 27.6103C151.416 27.9565 152.16 28.1074 152.918 28.1168C153.513 28.1241 154.052 28.0777 154.116 28.0135C154.18 27.9495 154.1 27.6941 153.938 27.4461C153.775 27.1982 153.273 26.6031 152.821 26.1239C152.369 25.6446 151.599 24.9473 151.108 24.5742C150.618 24.2011 149.888 23.7084 149.487 23.4791C149.085 23.2501 148.222 22.8703 147.567 22.6357C146.913 22.401 145.754 22.1002 144.993 21.9674C144.231 21.8345 143.581 21.7258 143.548 21.7258C143.515 21.7258 143.488 21.7806 143.489 21.8474ZM68.8831 27.5221C68.7853 27.7672 68.6676 28.6878 68.6212 29.5677C68.5703 30.537 68.6185 31.6228 68.7436 32.323C68.8573 32.9587 69.0917 33.917 69.2646 34.4525C69.4374 34.988 69.8418 35.9632 70.1628 36.6199C70.488 37.2848 71.0981 38.1744 71.5398 38.6277C72.0659 39.168 72.3869 39.3877 72.4941 39.2805C72.583 39.1916 72.7332 38.5956 72.8281 37.9559C72.9533 37.1134 72.9497 36.394 72.8156 35.3483C72.7138 34.5538 72.4502 33.282 72.2298 32.5218C72.0095 31.7616 71.6053 30.6655 71.3314 30.0861C71.0578 29.5066 70.5098 28.5923 70.1137 28.0544C69.7177 27.5164 69.3187 27.0762 69.2271 27.0762C69.1357 27.0762 68.9807 27.277 68.8831 27.5221ZM160.603 27.6842C160.285 28.0187 159.742 28.8394 159.397 29.5082C159.052 30.177 158.582 31.3079 158.354 32.0213C158.125 32.7347 157.848 33.7561 157.738 34.2912C157.628 34.8262 157.534 35.9206 157.529 36.7232C157.525 37.5257 157.616 38.456 157.732 38.7904C157.848 39.1248 158.003 39.3983 158.077 39.3983C158.151 39.3983 158.548 39.0248 158.958 38.5681C159.369 38.1115 159.997 37.1447 160.354 36.4198C160.711 35.6949 161.187 34.3722 161.411 33.4805C161.711 32.2896 161.82 31.4243 161.822 30.2216C161.824 29.321 161.74 28.2447 161.636 27.8302C161.531 27.4154 161.386 27.0762 161.313 27.0762C161.24 27.0762 160.921 27.3499 160.603 27.6842ZM81.3098 30.1076C80.7747 30.3338 79.8605 30.8269 79.2781 31.2033C78.6959 31.5796 77.935 32.1366 77.5874 32.4409C77.2397 32.7452 76.5469 33.5072 76.0479 34.1345C75.5487 34.7617 74.8381 35.8561 74.4687 36.5665C74.0994 37.2768 73.6462 38.2412 73.4619 38.7093L73.1267 39.5605H73.6047C73.8675 39.5605 74.4916 39.4074 74.9914 39.2205C75.4911 39.0336 76.4865 38.4385 77.2034 37.8985C77.9202 37.3584 79.0125 36.3258 79.6309 35.6038C80.2825 34.8431 81.0547 33.6968 81.4677 32.8774C81.8596 32.0996 82.2291 31.1375 82.2887 30.7391C82.3486 30.3408 82.3716 29.9432 82.34 29.8557C82.308 29.7668 81.8518 29.8784 81.3098 30.1076ZM148.028 30.1164C148.028 30.2845 148.145 30.8184 148.289 31.3027C148.433 31.7872 148.721 32.5213 148.93 32.9341C149.139 33.3471 149.762 34.2842 150.314 35.0169C150.866 35.7494 151.867 36.8174 152.538 37.39C153.209 37.9627 154.266 38.6853 154.887 38.9958C155.508 39.3064 156.261 39.5605 156.561 39.5605C156.91 39.5605 157.107 39.4819 157.107 39.3427C157.107 39.2229 156.961 38.6997 156.782 38.1801C156.603 37.6606 156.266 36.9013 156.032 36.4929C155.798 36.0845 155.197 35.2087 154.697 34.5464C154.196 33.8842 153.24 32.8764 152.572 32.3066C151.892 31.7262 150.786 30.9943 150.058 30.6422C149.342 30.2967 148.593 29.9682 148.392 29.9123C148.107 29.8328 148.028 29.8772 148.028 30.1164ZM97.0247 38.4218L96.7507 39.3983L95.7587 39.4035L94.7668 39.4086L95.2 39.7322C95.4384 39.91 95.7884 40.1813 95.9776 40.335C96.3085 40.6035 96.3121 40.6421 96.0713 41.3238C95.9335 41.7139 95.8207 42.1368 95.8207 42.2636C95.8207 42.4131 96.0838 42.2928 96.5714 41.9205L97.322 41.3474L98.1116 41.927C98.546 42.2457 98.9012 42.4403 98.9012 42.3594C98.9012 42.2785 98.7807 41.8586 98.6334 41.4261C98.3665 40.6432 98.367 40.6387 98.7603 40.3029C98.9774 40.1176 99.3351 39.8419 99.5551 39.6905C99.9515 39.4178 99.9463 39.4152 98.9677 39.4068L97.9801 39.3983L97.7645 38.499C97.6458 38.0045 97.4924 37.5649 97.4237 37.5225C97.3549 37.48 97.1755 37.8847 97.0247 38.4218ZM106.304 38.4256L106.034 39.3983H105.03H104.026L104.585 39.8147C104.892 40.0436 105.25 40.2924 105.38 40.3673C105.586 40.4858 105.581 40.6182 105.34 41.3838C105.187 41.868 105.062 42.3187 105.062 42.3853C105.062 42.452 105.417 42.2457 105.852 41.927L106.641 41.3474L107.392 41.9205C107.817 42.2451 108.142 42.4027 108.141 42.2837C108.14 42.1681 108.034 41.7279 107.906 41.3055L107.673 40.5373L108.435 40.0085L109.197 39.4794L108.231 39.3983L107.266 39.3173L107.024 38.385C106.891 37.8722 106.735 37.4528 106.678 37.4528C106.621 37.4528 106.453 37.8905 106.304 38.4256ZM115.25 37.5371C115.199 37.6244 115.033 38.0791 114.88 38.5472L114.602 39.3983H113.609H112.617L113.441 39.9754L114.265 40.5524L113.96 41.3553C113.793 41.7968 113.655 42.2365 113.655 42.3323C113.655 42.4281 114.011 42.2457 114.445 41.927L115.234 41.3474L115.975 41.913C116.383 42.2243 116.751 42.4789 116.792 42.4789C116.834 42.4789 116.737 42.0458 116.577 41.5165L116.285 40.554L117.111 39.9762L117.936 39.3983H116.937H115.937L115.639 38.3883C115.476 37.8328 115.3 37.4497 115.25 37.5371ZM124.241 38.3667L123.925 39.3173L122.985 39.3983L122.045 39.4794L122.795 40.0164C123.208 40.3118 123.545 40.5764 123.545 40.6046C123.545 40.6328 123.445 40.9018 123.322 41.2026C123.199 41.5033 123.043 41.9268 122.977 42.1439C122.863 42.5175 122.901 42.5064 123.692 41.9378L124.529 41.337L125.278 41.9096C125.691 42.2245 126.052 42.4586 126.08 42.4299C126.109 42.4012 126.012 41.9544 125.865 41.437C125.636 40.6301 125.63 40.4774 125.828 40.3637C125.955 40.2907 126.31 40.0436 126.617 39.8147L127.175 39.3983H126.187H125.199L125.014 38.6268C124.912 38.2025 124.768 37.7564 124.693 37.6356C124.6 37.4844 124.459 37.7117 124.241 38.3667ZM133.517 38.4246L133.222 39.3983L132.234 39.4068C131.256 39.4152 131.25 39.4178 131.647 39.6905C131.867 39.8419 132.216 40.1117 132.424 40.2901L132.8 40.6144L132.478 41.5479C132.186 42.3908 132.182 42.4667 132.431 42.3297C132.582 42.2464 132.954 41.9925 133.258 41.7657L133.81 41.3534L134.596 41.9299C135.028 42.247 135.381 42.439 135.381 42.3563C135.381 42.2738 135.273 41.848 135.14 41.4103C135.007 40.9725 134.898 40.6006 134.897 40.5839C134.896 40.5672 135.232 40.3118 135.645 40.0164L136.395 39.4794L135.449 39.3983L134.503 39.3173L134.253 38.4758C134.115 38.0129 133.96 37.593 133.907 37.5424C133.855 37.492 133.679 37.8889 133.517 38.4246ZM78.3064 39.9537C77.9072 40.2447 77.2788 40.812 76.9098 41.2142C76.5409 41.6165 76.1552 42.1021 76.0529 42.2934C75.8683 42.6386 75.8788 42.641 77.575 42.641H79.2831V41.1103C79.2831 40.2684 79.2265 39.5448 79.1576 39.502C79.0885 39.4593 78.7054 39.6625 78.3064 39.9537ZM151.27 41.0101V42.641H152.983H154.697L153.962 41.7058C153.558 41.1915 152.878 40.5094 152.451 40.1904C152.025 39.8711 151.584 39.5581 151.473 39.4947C151.317 39.4056 151.27 39.752 151.27 41.0101ZM65.826 41.2347V42.641H67.2042C67.9622 42.641 68.5823 42.5839 68.5823 42.5144C68.5823 42.4447 68.1629 41.9868 67.65 41.4967C67.1372 41.0067 66.5172 40.4308 66.2719 40.217L65.826 39.8282V41.2347ZM163.651 40.6713C163.3 40.9255 162.815 41.3689 162.573 41.6565C162.331 41.9442 162.133 42.2833 162.133 42.4103C162.133 42.5893 162.406 42.641 163.349 42.641H164.565V41.425C164.565 40.7562 164.503 40.209 164.427 40.209C164.352 40.209 164.002 40.417 163.651 40.6713ZM54.8628 52.2069C54.4064 52.2737 53.5534 52.488 52.9674 52.6829C52.3813 52.8779 51.4774 53.312 50.9586 53.6473C50.4398 53.9825 49.6983 54.6165 49.311 55.0559C48.9237 55.4952 48.4666 56.1285 48.2956 56.463C48.1245 56.7977 47.8677 57.5273 47.7247 58.0844C47.5459 58.7815 47.4915 59.4769 47.5504 60.3135C47.5974 60.9823 47.7949 61.9516 47.9895 62.4675C48.2197 63.0779 48.6586 63.746 49.2468 64.3813C49.9516 65.1427 50.475 65.5144 51.6245 66.0705C52.5991 66.542 54.0596 67.0356 55.9338 67.5267C57.4934 67.9352 59.1526 68.4451 59.6214 68.6596C60.0901 68.8743 60.6566 69.2472 60.88 69.4883C61.1881 69.8208 61.2863 70.1025 61.2863 70.6541C61.2863 71.1045 61.1597 71.5863 60.9536 71.9197C60.7435 72.2597 60.2806 72.6249 59.6971 72.9116C58.8636 73.321 58.6069 73.3652 57.0709 73.3652C55.762 73.3652 55.1061 73.2821 54.2335 73.0056C53.6093 72.8078 52.6318 72.3701 52.0611 72.0328C51.4906 71.6956 50.6823 71.114 50.2648 70.7405L49.5061 70.0613L48.1809 72.0375C47.4522 73.1245 46.856 74.1008 46.8561 74.2072C46.8563 74.3136 47.3774 74.8082 48.0143 75.3065C48.651 75.8047 49.6995 76.466 50.3444 76.7762C50.9892 77.0864 52.0916 77.4993 52.7941 77.6939C53.8759 77.9933 54.5058 78.0486 56.9087 78.0546C59.6094 78.0614 59.8085 78.04 61.0431 77.6076C61.7565 77.3578 62.674 76.94 63.0821 76.6792C63.49 76.4184 64.1008 75.9308 64.4392 75.5959C64.7774 75.2607 65.2252 74.7187 65.4342 74.3914C65.643 74.0639 65.9561 73.3708 66.1296 72.8511C66.3032 72.3313 66.4949 71.4318 66.5555 70.8522C66.62 70.2344 66.5871 69.3622 66.4759 68.7444C66.3713 68.1648 66.1046 67.3258 65.883 66.8799C65.6613 66.434 65.2112 65.7889 64.8829 65.4463C64.5544 65.1036 63.9734 64.6062 63.5917 64.3406C63.2099 64.075 62.3708 63.64 61.7272 63.3738C61.0833 63.1074 59.3266 62.5652 57.8232 62.1686C56.3197 61.7722 54.7707 61.3067 54.3809 61.1344C53.9911 60.9621 53.4885 60.6371 53.2638 60.4124C52.9538 60.1024 52.8556 59.8362 52.856 59.3075C52.8564 58.8955 52.9901 58.3921 53.1836 58.0748C53.3724 57.7651 53.8005 57.4068 54.1964 57.2272C54.7044 56.9964 55.2542 56.9149 56.3179 56.9123C57.1171 56.9103 58.1954 57.023 58.7499 57.1667C59.2978 57.3085 60.1284 57.6052 60.5956 57.8261C61.0629 58.0471 61.827 58.5147 62.2937 58.8653C62.7603 59.216 63.1805 59.4988 63.2275 59.4939C63.2746 59.4891 63.8798 58.6888 64.5728 57.7155C65.2656 56.7422 65.8716 55.8437 65.9196 55.7185C65.9752 55.5739 65.6346 55.2094 64.9843 54.7173C64.4218 54.2917 63.4508 53.7011 62.8266 53.4047C62.2024 53.1082 61.2594 52.7546 60.7312 52.6188C60.2028 52.4831 59.1833 52.2983 58.4655 52.2083C57.7478 52.1183 56.8303 52.0538 56.4265 52.065C56.023 52.076 55.3193 52.1399 54.8628 52.2069ZM90.0823 52.3601C89.2891 52.5334 88.0488 52.9609 87.326 53.3103C86.6031 53.6597 85.5601 54.2806 85.008 54.6899C84.4561 55.0995 83.5936 55.9303 83.0913 56.5365C82.589 57.1425 81.8962 58.222 81.5518 58.9354C81.2075 59.6488 80.8143 60.6702 80.6781 61.2053C80.5417 61.7403 80.3566 62.8347 80.2664 63.6373C80.164 64.5496 80.1565 65.6148 80.2467 66.4796C80.3259 67.2403 80.5119 68.3305 80.6601 68.9022C80.8083 69.4739 81.1343 70.3937 81.3848 70.9461C81.6353 71.4986 82.1353 72.3848 82.4958 72.9158C82.8564 73.4466 83.6675 74.359 84.2982 74.943C84.96 75.5557 85.9764 76.2799 86.7012 76.6549C87.392 77.0126 88.4679 77.4674 89.0922 77.6658C89.9581 77.941 90.7672 78.0454 92.506 78.1068C94.4605 78.1757 94.98 78.1384 96.154 77.8456C96.907 77.6579 98.1802 77.1806 98.9834 76.7848C99.8523 76.3568 100.95 75.6335 101.693 74.9992C102.381 74.4128 103.019 73.7918 103.111 73.6193C103.216 73.4231 103.279 71.5075 103.279 68.5119V63.7183H97.5231H91.7674V66.0692V68.4202H94.9289H98.0905V69.9595V71.4986L97.425 71.9808C97.0589 72.246 96.3601 72.6123 95.8721 72.795C95.3841 72.9776 94.5345 73.1892 93.984 73.2652C93.4336 73.3411 92.5303 73.3484 91.9768 73.2811C91.4233 73.214 90.4923 72.9354 89.9083 72.6621C89.3242 72.3887 88.4546 71.7947 87.9762 71.3421C87.4976 70.8895 86.8845 70.1017 86.6138 69.5913C86.343 69.0809 85.991 68.2256 85.8317 67.6906C85.6386 67.0425 85.541 66.1766 85.5395 65.0965C85.5377 63.8749 85.6257 63.1888 85.8963 62.3138C86.094 61.6751 86.5655 60.6923 86.9442 60.1297C87.3231 59.5671 88.0091 58.8024 88.4689 58.4303C88.9287 58.0584 89.7313 57.5843 90.2524 57.3771C91.0282 57.0684 91.5084 56.9992 92.9023 56.995C94.479 56.9901 94.6838 57.0272 95.6762 57.4974C96.2654 57.7766 97.0738 58.3238 97.4727 58.7134C97.8715 59.103 98.3094 59.5878 98.4461 59.7908L98.6943 60.1598L100.703 59.0087C101.808 58.3755 102.768 57.8029 102.836 57.7363C102.905 57.6696 102.601 57.1381 102.159 56.5554C101.718 55.9726 100.969 55.1559 100.494 54.7404C100.019 54.3248 99.0836 53.7006 98.4148 53.3535C97.746 53.0062 96.7611 52.6031 96.226 52.4578C95.691 52.3127 94.4142 52.1603 93.3887 52.1195C91.9319 52.0614 91.2088 52.1141 90.0823 52.3601ZM192.938 52.1375C192.715 52.1759 192.132 52.2879 191.641 52.3867C191.151 52.4854 190.239 52.8004 189.615 53.0869C188.938 53.3976 188.084 53.9743 187.499 54.5158C186.96 55.0152 186.324 55.7816 186.086 56.2189C185.848 56.6563 185.541 57.4434 185.405 57.9683C185.268 58.4931 185.157 59.3631 185.158 59.9017C185.159 60.4403 185.262 61.2651 185.387 61.7345C185.512 62.2038 185.806 62.9158 186.041 63.3166C186.276 63.7172 186.775 64.342 187.15 64.7051C187.525 65.0681 188.488 65.6843 189.29 66.0744C190.265 66.5484 191.691 67.0292 193.587 67.5233C195.147 67.9299 196.881 68.4854 197.439 68.7576C198.106 69.083 198.537 69.4129 198.696 69.72C198.829 69.9771 198.937 70.4926 198.937 70.8655C198.937 71.447 198.839 71.6414 198.247 72.2337C197.767 72.7133 197.288 73.0037 196.677 73.1851C196.194 73.3288 195.312 73.4463 194.718 73.4463C194.125 73.4463 193.076 73.3025 192.389 73.1266C191.701 72.9507 190.642 72.5461 190.036 72.2274C189.429 71.9086 188.532 71.2903 188.042 70.8533L187.15 70.0587L185.753 72.1173L184.356 74.1759L185.202 74.9344C185.667 75.3515 186.429 75.9245 186.894 76.2078C187.36 76.4912 188.195 76.9065 188.751 77.1308C189.306 77.3552 190.458 77.6828 191.309 77.8589C192.56 78.1177 193.293 78.1655 195.127 78.1078C197.053 78.0472 197.594 77.9695 198.694 77.595C199.408 77.3521 200.331 76.9365 200.745 76.6713C201.16 76.4062 201.84 75.8254 202.256 75.3809C202.672 74.9363 203.224 74.1185 203.483 73.5635C203.742 73.0085 204.037 71.9996 204.137 71.3211C204.268 70.443 204.272 69.7764 204.152 69.0069C204.059 68.4126 203.805 67.5361 203.587 67.0594C203.369 66.5826 202.908 65.8792 202.563 65.4964C202.219 65.1136 201.56 64.5587 201.099 64.2631C200.639 63.9675 199.727 63.5142 199.073 63.2556C198.419 62.997 196.83 62.5148 195.542 62.1841C194.254 61.8535 192.817 61.4392 192.348 61.2636C191.879 61.0882 191.272 60.7369 191.001 60.483C190.596 60.105 190.507 59.8934 190.507 59.3162C190.507 58.8955 190.64 58.3948 190.835 58.0748C191.023 57.7651 191.451 57.4068 191.847 57.2272C192.355 56.9964 192.905 56.9149 193.969 56.9123C194.761 56.9103 195.845 57.0229 196.387 57.1633C196.927 57.3034 197.833 57.6437 198.399 57.9198C198.965 58.1957 199.718 58.6698 200.072 58.9732C200.427 59.2764 200.787 59.4808 200.874 59.4273C200.96 59.374 201.587 58.5589 202.266 57.6163C202.945 56.6736 203.536 55.8098 203.579 55.6968C203.624 55.58 203.215 55.1556 202.635 54.7162C202.073 54.29 201.089 53.697 200.448 53.3985C199.808 53.1001 198.677 52.7109 197.936 52.5339C197.195 52.3568 195.858 52.1795 194.966 52.1397C194.074 52.1 193.161 52.099 192.938 52.1375ZM0 65.0948V77.6794L6.20159 77.6227C11.4455 77.5745 12.5535 77.523 13.376 77.2885C13.911 77.1361 15.0419 76.6728 15.889 76.2588C17.173 75.6315 17.6613 75.274 18.8237 74.1115C19.9395 72.9953 20.3524 72.4416 20.8918 71.3386C21.2623 70.5806 21.7069 69.3998 21.8795 68.7143C22.0524 68.029 22.243 66.8584 22.3037 66.1127C22.3682 65.3174 22.3348 64.1572 22.2229 63.3055C22.1182 62.507 21.8259 61.251 21.5736 60.5144C21.3212 59.7777 20.8691 58.7562 20.569 58.2445C20.2689 57.7327 19.4398 56.7288 18.7264 56.0133C17.7811 55.0653 17.0763 54.5294 16.1279 54.0377C15.4121 53.6666 14.2812 53.1983 13.6148 52.9971C12.4669 52.6506 12.0766 52.6281 6.20159 52.5709L0 52.5104V65.0948ZM26.5898 65.0965V77.6618H35.1873H43.7849L43.7398 75.3514L43.6949 73.041L37.7365 72.9985L31.7781 72.9559V70.1206V67.2852H37.6149H43.4517V64.9343V62.5834H37.6149H31.7781V59.9101V57.237L37.7365 57.1944L43.6949 57.1519L43.7398 54.8415L43.7849 52.5311H35.1873H26.5898V65.0965ZM70.69 65.0965V77.6618H73.2842H75.8783V65.0965V52.5311H73.2842H70.69V65.0965ZM107.981 65.0926V77.6618H110.573H113.166L113.208 69.566L113.25 61.4702L118.895 69.566L124.54 77.6618H127.042H129.544V65.0965V52.5311H126.952H124.359L124.317 60.316L124.275 68.1006L118.83 60.3565L113.385 52.6122L110.683 52.5678L107.981 52.5234V65.0926ZM134.895 65.0965V77.6618H137.489H140.083V73.1979V68.7342L141.981 68.7798L143.879 68.8255L146.21 73.2436L148.541 77.6618H151.463C153.921 77.6618 154.371 77.6251 154.297 77.4315C154.248 77.3049 153.069 75.1816 151.675 72.7131C150.282 70.2448 149.164 68.207 149.192 68.1846C149.221 68.1622 149.665 67.9537 150.181 67.7212C150.7 67.4871 151.538 66.8981 152.059 66.401C152.6 65.8851 153.189 65.1182 153.444 64.5976C153.688 64.0993 153.999 63.1688 154.135 62.5296C154.302 61.7448 154.354 60.9197 154.295 59.9893C154.247 59.2313 154.057 58.1792 153.873 57.6515C153.689 57.1236 153.312 56.3392 153.036 55.908C152.759 55.4771 152.178 54.8054 151.744 54.4154C151.311 54.0254 150.622 53.5498 150.215 53.3583C149.808 53.167 149.061 52.9026 148.555 52.7708C147.819 52.579 146.362 52.5311 141.265 52.5311H134.895V65.0965ZM158.925 61.4079L158.975 70.2847L159.417 71.5944C159.661 72.3149 160.14 73.3364 160.482 73.8643C160.824 74.3924 161.506 75.192 161.999 75.6413C162.492 76.0907 163.362 76.6867 163.933 76.9661C164.504 77.2452 165.408 77.5935 165.943 77.7398C166.489 77.8891 167.879 78.0463 169.112 78.0984C170.82 78.1705 171.612 78.1302 172.679 77.9166C173.477 77.7569 174.625 77.3657 175.426 76.9805C176.417 76.5033 177.079 76.0404 177.798 75.3222C178.42 74.7002 179.006 73.9013 179.359 73.1969C179.67 72.5761 180.058 71.5939 180.221 71.0143C180.488 70.0658 180.523 69.0887 180.576 61.2458L180.634 52.5311H177.956H175.277L175.231 61.0063L175.185 69.4815L174.652 70.5629C174.323 71.2325 173.88 71.8342 173.491 72.1424C173.145 72.4163 172.582 72.7581 172.24 72.902C171.898 73.046 171.18 73.2177 170.645 73.2835C170.11 73.3495 169.206 73.3388 168.635 73.26C168.055 73.1798 167.245 72.9241 166.794 72.6786C166.351 72.4377 165.742 71.9522 165.44 71.5998C165.139 71.2473 164.727 70.5519 164.526 70.0543C164.166 69.1628 164.16 69.0311 164.111 60.8405L164.062 52.5311H161.469H158.875L158.925 61.4079ZM208.341 65.0965V77.6618H210.935H213.529V72.3924V67.1231H219.204H224.879V72.3924V77.6618H227.473H230.067V65.0965V52.5311H227.473H224.879V57.4762V62.4213H219.204H213.529V57.4762V52.5311H210.935H208.341V65.0965ZM11.2057 57.395C11.6859 57.484 12.6031 57.8139 13.2438 58.1281C14.007 58.5025 14.6418 58.9638 15.0847 59.4659C15.4565 59.8876 15.9361 60.5776 16.1502 60.9995C16.3646 61.4214 16.6477 62.2239 16.7795 62.783C16.9113 63.342 17.0202 64.386 17.0215 65.1029C17.0228 65.8199 16.9152 66.8243 16.7821 67.335C16.6491 67.8456 16.3498 68.6392 16.1172 69.0985C15.8843 69.5579 15.3373 70.3107 14.9015 70.7716C14.4657 71.2324 13.7554 71.802 13.3231 72.0372C12.8909 72.2725 12.0694 72.5752 11.4973 72.7101C10.7963 72.8753 9.59958 72.9559 7.82292 72.9575L5.18826 72.9599V65.0965V57.233H7.76034C9.17479 57.233 10.7253 57.3058 11.2057 57.395ZM146.587 57.3977C146.91 57.4874 147.42 57.7262 147.72 57.9285C148.02 58.1309 148.434 58.5862 148.639 58.9403C148.952 59.4785 149.005 59.7722 148.964 60.7334C148.925 61.657 148.83 62.0117 148.482 62.5378C148.211 62.9482 147.757 63.3362 147.268 63.5771C146.527 63.9417 146.325 63.9615 143.326 63.9615H140.164L140.12 60.5973L140.076 57.233L143.039 57.234C144.668 57.2345 146.265 57.3081 146.587 57.3977ZM177.198 87.6973C176.967 87.7725 176.59 87.9571 176.36 88.1077C176.13 88.2583 175.827 88.6254 175.685 88.9235C175.544 89.2215 175.428 89.6551 175.428 89.8868C175.428 90.2843 175.474 90.3082 176.239 90.3082C176.908 90.3082 177.049 90.2577 177.049 90.02C177.049 89.8615 177.163 89.5696 177.302 89.3715C177.478 89.1202 177.72 89.0111 178.101 89.0111C178.402 89.0111 178.762 89.1257 178.902 89.2658C179.043 89.407 179.157 89.7922 179.157 90.1298C179.157 90.5369 178.994 90.9854 178.665 91.4818C178.394 91.8906 177.555 92.7551 176.8 93.403C175.524 94.4993 175.428 94.6243 175.428 95.2008V95.8207H178.265H181.103V95.1721V94.5236H179.453H177.804L179.024 93.2671C179.696 92.5759 180.373 91.7604 180.531 91.4546C180.688 91.1488 180.822 90.559 180.828 90.1438C180.835 89.6719 180.722 89.1877 180.525 88.8522C180.352 88.557 180.024 88.1763 179.796 88.0062C179.55 87.8228 179.022 87.6693 178.499 87.6289C178.014 87.5914 177.428 87.6223 177.198 87.6973ZM185.395 87.7362C185.036 87.8158 184.544 88.0646 184.302 88.2891C184.06 88.5135 183.734 88.932 183.577 89.2189C183.348 89.6382 183.292 90.139 183.292 91.7674C183.292 93.6802 183.316 93.8362 183.732 94.5431C184.018 95.03 184.387 95.3939 184.786 95.5833C185.146 95.7544 185.767 95.8742 186.291 95.8739C186.81 95.8734 187.403 95.7587 187.71 95.5992C188 95.4484 188.415 95.0536 188.632 94.7217C188.849 94.3899 189.111 93.644 189.214 93.0644C189.318 92.4848 189.355 91.5918 189.298 91.0799C189.241 90.5681 189.113 89.9114 189.015 89.6207C188.916 89.33 188.695 88.8905 188.523 88.6439C188.352 88.3972 188.016 88.0973 187.778 87.9773C187.54 87.8574 187.053 87.7215 186.696 87.6754C186.34 87.6294 185.754 87.6568 185.395 87.7362ZM192.936 87.9167C192.54 88.1172 192.094 88.5004 191.945 88.7679C191.796 89.0354 191.624 89.4913 191.564 89.7812L191.453 90.3082H192.277C192.865 90.3082 193.101 90.2448 193.101 90.0868C193.101 89.9651 193.252 89.6732 193.437 89.4383C193.681 89.1277 193.922 89.0111 194.319 89.0111C194.7 89.0111 194.942 89.1202 195.118 89.3715C195.257 89.5696 195.37 89.9009 195.37 90.1074C195.37 90.3142 195.227 90.7642 195.052 91.1078C194.877 91.4514 193.997 92.4128 193.098 93.2444C191.643 94.5909 191.469 94.8103 191.512 95.248L191.56 95.7396L194.357 95.784L197.154 95.8283V95.176V94.5236H195.529H193.905L195.034 93.4586C195.696 92.8345 196.335 92.0491 196.577 91.5621C196.818 91.0802 196.992 90.4536 196.992 90.0711C196.992 89.7083 196.859 89.1572 196.696 88.8464C196.512 88.4955 196.131 88.1434 195.689 87.9167C195.294 87.7143 194.683 87.5519 194.317 87.5519C193.953 87.5519 193.332 87.7158 192.936 87.9167ZM200.576 87.9066C200.156 88.1325 199.74 88.5197 199.562 88.8504C199.397 89.1589 199.262 89.6171 199.262 89.8686C199.262 90.3129 199.283 90.3245 200.03 90.2765C200.65 90.2367 200.81 90.1643 200.858 89.9028C200.89 89.7245 201.03 89.4508 201.168 89.2948C201.308 89.1364 201.648 89.0111 201.937 89.0111C202.232 89.0111 202.569 89.1384 202.722 89.3076C202.87 89.4707 202.991 89.8391 202.991 90.1262C202.991 90.4135 202.884 90.8547 202.754 91.1067C202.623 91.3586 201.784 92.2557 200.889 93.1001C199.404 94.5011 199.262 94.6875 199.262 95.2281V95.8207H202.099H204.936V95.1721V94.5236H203.278H201.621L202.777 93.3481C203.413 92.7017 204.086 91.882 204.273 91.5266C204.486 91.1198 204.612 90.5792 204.611 90.0674C204.611 89.5478 204.497 89.0673 204.295 88.7361C204.121 88.4512 203.796 88.098 203.572 87.9512C203.348 87.8043 202.742 87.6482 202.226 87.6041C201.451 87.5378 201.165 87.5903 200.576 87.9066ZM24.9685 91.9079V95.9828H26.7612C27.7473 95.9828 28.871 95.903 29.2587 95.8054C29.6462 95.7078 30.1611 95.4215 30.4029 95.1692C30.7007 94.8583 30.8654 94.4844 30.9138 94.009C30.9668 93.4892 30.8982 93.1688 30.6488 92.7714C30.4638 92.4767 30.0828 92.1388 29.8023 92.0209C29.3305 91.8225 29.318 91.7982 29.6362 91.6971C29.8255 91.637 30.166 91.3674 30.3928 91.0977C30.6456 90.7973 30.8051 90.4083 30.8046 90.093C30.8043 89.8101 30.6616 89.3449 30.4875 89.0596C30.3135 88.7741 29.9307 88.4154 29.637 88.2627C29.2444 88.0586 28.5547 87.9648 27.0357 87.9091L24.9685 87.8332V91.9079ZM33.5119 87.9799C33.45 88.0417 33.3994 89.8676 33.3994 92.0376V95.9828H35.7504H38.1013V95.3343V94.6857H36.561H35.0208V93.6384V92.5911L36.3584 92.544L37.696 92.4969L37.7459 91.8956L37.7958 91.2944L36.4488 91.2471L35.1018 91.1999L35.0535 90.1866L35.0054 89.1732H36.5631H38.1209L38.0705 88.5652L38.0202 87.9572L35.8223 87.9123C34.6135 87.8877 33.5737 87.918 33.5119 87.9799ZM42.0735 88.1051C41.806 88.2239 41.4169 88.5059 41.2087 88.7316C41.0007 88.9573 40.7771 89.3861 40.712 89.6844C40.6468 89.9829 40.6471 90.4813 40.7128 90.792C40.7784 91.1026 41.021 91.5193 41.2519 91.7179C41.4826 91.9164 42.1997 92.2346 42.8453 92.4251C43.4909 92.6155 44.1832 92.923 44.3839 93.1084C44.5847 93.2935 44.7487 93.5784 44.7487 93.7412C44.7487 93.9039 44.6028 94.1831 44.4245 94.3615C44.2315 94.5544 43.8867 94.6848 43.5733 94.6833C43.2834 94.6819 42.9661 94.6272 42.868 94.5617C42.7699 94.4962 42.6031 94.2783 42.4975 94.0777C42.3344 93.7682 42.1728 93.7129 41.4307 93.7129H40.556L40.6889 94.1768C40.7621 94.4318 40.9016 94.7895 40.9991 94.9716C41.0965 95.1537 41.4925 95.4557 41.8788 95.6428C42.3247 95.8586 42.8991 95.9828 43.4517 95.9828C44.0007 95.9828 44.5782 95.8588 45.0158 95.647C45.3971 95.4624 45.8581 95.0706 46.0396 94.7767C46.2214 94.4828 46.3701 93.9735 46.3701 93.6452C46.3701 93.3169 46.2593 92.8343 46.1241 92.5727C45.9889 92.3111 45.6787 91.9945 45.4351 91.8692C45.1914 91.7437 44.464 91.4844 43.8189 91.2928C43.051 91.0647 42.5856 90.8317 42.4711 90.618C42.375 90.4383 42.3192 90.1335 42.3471 89.9404C42.375 89.7473 42.5935 89.48 42.8327 89.3461C43.1581 89.1641 43.3824 89.1429 43.7244 89.2619C43.9757 89.3495 44.2533 89.5841 44.3413 89.7835C44.4778 90.0925 44.6271 90.146 45.3546 90.146C46.1068 90.146 46.2079 90.1066 46.2079 89.8136C46.2079 89.6309 46.1004 89.2736 45.9691 89.0197C45.8357 88.7614 45.42 88.4076 45.0263 88.217C44.5668 87.9945 44.0159 87.8784 43.441 87.8825C42.9564 87.886 42.3411 87.9861 42.0735 88.1051ZM48.5895 87.9806C48.5281 88.042 48.4778 88.3322 48.4778 88.6254V89.1585L49.5722 89.2063L50.6666 89.2543L50.7104 92.6185L50.7543 95.9828H51.5616H52.369V92.578V89.1732H53.4326H54.4963L54.4459 88.5652L54.3957 87.9572L51.5484 87.9131C49.9824 87.8888 48.651 87.9191 48.5895 87.9806ZM60.7399 88.0042C60.6963 88.0748 61.0571 89.5156 61.5417 91.2064C62.0261 92.8971 62.5347 94.6669 62.6719 95.1396L62.9213 95.9985L63.8436 95.9502L64.7659 95.9017L65.4885 93.3481C65.886 91.9436 66.2542 90.7946 66.3069 90.7946C66.3595 90.7946 66.7223 91.9619 67.1131 93.3887L67.8235 95.9828H68.7436H69.6639L70.7697 92.1321C71.3778 90.0144 71.8824 88.2085 71.8908 88.1194C71.8992 88.0302 71.5412 87.9572 71.0954 87.9572C70.2897 87.9572 70.2836 87.9613 70.0921 88.6058C69.9861 88.9624 69.6539 90.3122 69.3537 91.6052L68.8082 93.9561L68.201 91.5242C67.867 90.1866 67.5215 88.8186 67.4333 88.4842C67.2729 87.8766 67.2721 87.8762 66.3987 87.8762H65.5248L65.2816 88.7274C65.1478 89.1956 64.7976 90.5087 64.5035 91.6458C64.2093 92.7828 63.9254 93.7129 63.8725 93.7129C63.8198 93.7129 63.499 92.5274 63.1598 91.0783C62.8206 89.6293 62.4765 88.3159 62.3953 88.1599C62.2886 87.955 62.0493 87.8762 61.5334 87.8762C61.1406 87.8762 60.7834 87.9339 60.7399 88.0042ZM74.0948 91.9295V95.9828H76.3647H78.6346V95.3343V94.6857H77.1754H75.7162V93.6319V92.578H77.0132H78.3103V91.9295V91.281H77.0132H75.7162V90.2271V89.1732H77.1754H78.6346V88.5247V87.8762H76.3647H74.0948V91.9295ZM81.499 87.9843C81.4395 88.0436 81.3908 89.8676 81.3908 92.0376V95.9828L83.377 95.9757C84.6236 95.9713 85.5935 95.8863 85.9818 95.7479C86.3221 95.6266 86.742 95.3993 86.9147 95.2428C87.0875 95.0865 87.3025 94.6854 87.3925 94.3516C87.5052 93.9328 87.5018 93.6014 87.3815 93.2828C87.2855 93.0289 87.0156 92.6207 86.7816 92.3753C86.5476 92.13 86.2423 91.9292 86.1029 91.9288C85.9628 91.9285 86.0805 91.7873 86.366 91.6133C86.6503 91.44 86.9603 91.1534 87.0551 90.976C87.15 90.7988 87.2276 90.356 87.2276 89.9922C87.2276 89.4699 87.1166 89.2113 86.7007 88.7646C86.2942 88.3282 85.974 88.162 85.3005 88.0375C84.8201 87.9488 83.7925 87.8762 83.017 87.8762C82.2415 87.8762 81.5583 87.9248 81.499 87.9843ZM91.1764 88.1351C90.8959 88.2734 90.5022 88.5612 90.3018 88.7747C90.0625 89.0292 89.9112 89.4339 89.8615 89.9518C89.8098 90.4902 89.8696 90.903 90.0497 91.2513C90.1948 91.5321 90.5131 91.8622 90.7568 91.9849C91.0005 92.1077 91.7271 92.3658 92.3715 92.5587C93.1043 92.7779 93.6053 93.0255 93.7091 93.2194C93.8003 93.39 93.8751 93.6437 93.8751 93.7833C93.8751 93.9229 93.7292 94.1831 93.5508 94.3615C93.3558 94.5565 93.0104 94.6857 92.6842 94.6857C92.3647 94.6857 92.0316 94.564 91.8736 94.3892C91.726 94.2261 91.6052 94.0072 91.6052 93.9028C91.6052 93.7807 91.2868 93.7129 90.7135 93.7129C89.8779 93.7129 89.8218 93.7377 89.8218 94.1058C89.8218 94.3219 90.0189 94.7331 90.26 95.0196C90.5011 95.3061 90.9366 95.6401 91.2276 95.7617C91.5188 95.8833 92.1634 95.9828 92.6604 95.9828C93.2497 95.9828 93.7891 95.8679 94.2122 95.6521C94.5688 95.47 95.0034 95.087 95.1778 94.8009C95.3768 94.4747 95.4954 93.9884 95.4958 93.4978C95.4962 92.851 95.4153 92.6341 95.0291 92.2479C94.7195 91.9384 94.1428 91.6573 93.3204 91.4154C92.6377 91.2145 91.936 90.9168 91.761 90.7539C91.5862 90.5909 91.4431 90.3146 91.4431 90.1397C91.4431 89.9648 91.589 89.6758 91.7674 89.4975C91.9457 89.3191 92.2991 89.1732 92.5529 89.1732C92.8066 89.1732 93.1349 89.3067 93.2825 89.4698C93.43 89.6329 93.5508 89.8517 93.5508 89.9562C93.5508 90.0799 93.8856 90.146 94.5123 90.146H95.4737L95.3408 89.6822C95.2676 89.4271 95.1209 89.0562 95.0147 88.8577C94.9085 88.6594 94.5175 88.359 94.1457 88.1902C93.7447 88.0081 93.1071 87.8833 92.578 87.8834C92.0876 87.8834 91.4569 87.9968 91.1764 88.1351ZM98.1669 88.0732C98.1215 88.1915 98.104 90.0012 98.128 92.095L98.1716 95.9017L99.0257 95.9509L99.8797 96L99.8364 91.9786L99.7929 87.9572L99.0212 87.9078C98.4925 87.8739 98.2233 87.9259 98.1669 88.0732ZM102.256 87.9806C102.194 88.042 102.144 88.3355 102.144 88.6328V89.1732H103.198H104.252V92.578V95.9828H105.059H105.866L105.91 92.6185L105.954 89.2543L107.058 89.2061L108.161 89.158L108.112 88.5576L108.062 87.9572L105.215 87.9131C103.648 87.8888 102.317 87.9191 102.256 87.9806ZM110.413 91.9295V95.9917L112.723 95.9467L115.033 95.9017L115.084 95.2937L115.134 94.6857H113.584H112.034V93.6319V92.578H113.331H114.628V91.9295V91.281H113.331H112.034V90.2271V89.1732H113.584H115.134L115.084 88.5652L115.033 87.9572L112.723 87.9123L110.413 87.8672V91.9295ZM122.33 88.0597C122.282 88.1853 122.262 90.0012 122.286 92.095L122.329 95.9017L123.929 95.9484C125.003 95.9797 125.805 95.9146 126.371 95.75C126.835 95.6153 127.51 95.2907 127.871 95.0288C128.247 94.7568 128.683 94.234 128.889 93.8089C129.153 93.2617 129.249 92.7706 129.249 91.9514C129.249 91.1548 129.156 90.6553 128.922 90.1971C128.742 89.8448 128.303 89.2927 127.946 88.9702C127.589 88.6479 127.019 88.3013 126.678 88.2001C126.337 88.0989 125.239 87.9746 124.238 87.9237C122.759 87.8486 122.401 87.8742 122.33 88.0597ZM131.652 91.9295V95.9917L133.962 95.9467L136.273 95.9017L136.323 95.2937L136.374 94.6857H134.823H133.273V93.6319V92.578H134.57H135.868V91.9295V91.281H134.57H133.273V90.2271V89.1732H134.823H136.374L136.323 88.5652L136.273 87.9572L133.962 87.9123L131.652 87.8672V91.9295ZM140.135 88.2119C139.762 88.3966 139.352 88.7076 139.224 88.9033C139.095 89.099 138.939 89.4949 138.875 89.783C138.812 90.0724 138.841 90.5507 138.94 90.8511C139.039 91.1506 139.288 91.5538 139.494 91.7476C139.701 91.9413 140.364 92.2413 140.969 92.4141C141.573 92.5869 142.241 92.8421 142.453 92.9812C142.709 93.1486 142.839 93.3887 142.839 93.6915C142.839 93.9432 142.706 94.2699 142.543 94.4174C142.38 94.565 142.015 94.6857 141.732 94.6857C141.434 94.6857 141.082 94.5494 140.894 94.3615C140.715 94.1831 140.569 93.9643 140.569 93.8751C140.569 93.7859 140.16 93.7129 139.66 93.7129H138.751L138.86 94.1588C138.921 94.4041 139.08 94.7749 139.215 94.9831C139.35 95.1911 139.764 95.4997 140.136 95.6686C140.516 95.8408 141.182 95.9773 141.653 95.9792C142.116 95.9812 142.699 95.9051 142.95 95.8103C143.201 95.7154 143.606 95.4481 143.849 95.2161C144.092 94.9842 144.373 94.5463 144.473 94.2431C144.573 93.9399 144.609 93.4493 144.554 93.1531C144.498 92.8567 144.262 92.424 144.03 92.1913C143.776 91.9373 143.145 91.6326 142.453 91.4293C141.818 91.243 141.135 90.9857 140.934 90.8578C140.697 90.7064 140.569 90.4648 140.569 90.1674C140.569 89.9158 140.703 89.5891 140.866 89.4416C141.029 89.294 141.357 89.1732 141.596 89.1732C141.834 89.1732 142.175 89.3191 142.353 89.4975C142.531 89.6758 142.677 89.8947 142.677 89.9839C142.677 90.0731 143.088 90.146 143.589 90.146H144.501L144.397 89.6269C144.34 89.3413 144.131 88.9307 143.931 88.7142C143.732 88.4978 143.334 88.2207 143.047 88.0984C142.76 87.9762 142.14 87.8762 141.669 87.8763C141.13 87.8763 140.562 88.0007 140.135 88.2119ZM147.325 87.9843C147.266 88.0436 147.217 89.8676 147.217 92.0376V95.9828H148.028H148.838V91.9295V87.8762H148.136C147.749 87.8762 147.384 87.9248 147.325 87.9843ZM153.84 88.1017C153.515 88.2179 153.055 88.4657 152.817 88.6525C152.58 88.8391 152.242 89.1744 152.067 89.3973C151.891 89.6204 151.641 90.0601 151.509 90.3745C151.378 90.689 151.272 91.4047 151.274 91.9648C151.276 92.5996 151.389 93.2277 151.574 93.6319C151.736 93.9886 152.118 94.5238 152.421 94.8213C152.725 95.1188 153.191 95.4818 153.459 95.6281C153.794 95.8113 154.353 95.8953 155.254 95.8979C156.432 95.9014 156.643 95.8525 157.358 95.4111C157.845 95.1099 158.338 94.6196 158.633 94.142C158.983 93.5761 159.134 93.1014 159.184 92.4034L159.254 91.4431H157.045H154.837V92.0916V92.7401H156.145C157.426 92.7401 157.451 92.7476 157.342 93.1049C157.282 93.3055 157.08 93.6351 156.895 93.8373C156.71 94.0395 156.288 94.2859 155.957 94.3852C155.626 94.4844 155.091 94.5162 154.769 94.4557C154.422 94.3905 153.959 94.1207 153.629 93.7916C153.232 93.3945 153.044 93.033 152.967 92.5172C152.908 92.1213 152.905 91.5869 152.962 91.3299C153.018 91.0728 153.199 90.6407 153.364 90.3698C153.529 90.0987 153.921 89.755 154.234 89.6061C154.548 89.4571 155.035 89.3354 155.316 89.3354C155.596 89.3354 156.023 89.4391 156.264 89.5657C156.505 89.6925 156.829 89.9479 156.984 90.1332C157.2 90.3912 157.454 90.4703 158.069 90.4703C158.51 90.4703 158.91 90.4082 158.957 90.3323C159.003 90.2564 158.855 89.9069 158.628 89.5555C158.4 89.2042 157.975 88.7536 157.684 88.5542C157.393 88.3548 156.908 88.1207 156.605 88.0339C156.303 87.9472 155.69 87.8794 155.244 87.8833C154.797 87.8872 154.166 87.9854 153.84 88.1017ZM161.558 88.0822C161.514 88.1956 161.498 90.0012 161.522 92.095L161.566 95.9017H162.376H163.187L163.268 93.3084L163.349 90.7151L165.052 93.3491L166.754 95.983L167.565 95.9424L168.375 95.9017V91.9295V87.9572H167.565H166.754L166.709 90.604L166.665 93.2509L165.033 90.7662C164.136 89.3996 163.326 88.1904 163.234 88.0788C163.142 87.9674 162.745 87.8762 162.351 87.8762C161.923 87.8762 161.605 87.9587 161.558 88.0822ZM28.8038 89.5343C28.946 89.6765 29.0624 89.9956 29.0624 90.2433C29.0624 90.5141 28.9177 90.8111 28.6998 90.9875C28.4503 91.1895 28.0652 91.281 27.4636 91.281H26.5898V90.2076V89.1343L27.5675 89.205C28.1656 89.2483 28.6457 89.376 28.8038 89.5343ZM85.0351 89.3631C85.2644 89.4677 85.4959 89.7284 85.5497 89.9425C85.6035 90.1567 85.5685 90.5051 85.4722 90.7167C85.3577 90.9679 85.1077 91.1368 84.7517 91.2036C84.4517 91.2599 83.9559 91.2821 83.6498 91.2529C83.1073 91.2012 83.0919 91.1799 83.043 90.4098C83.0154 89.9753 83.0313 89.5192 83.0785 89.3965C83.1336 89.2528 83.4233 89.1732 83.8912 89.1732C84.2911 89.1732 84.8058 89.2587 85.0351 89.3631ZM126.454 89.6296C126.671 89.7909 126.995 90.118 127.173 90.3565C127.381 90.6355 127.521 91.1303 127.566 91.7435C127.615 92.4279 127.555 92.8637 127.353 93.2891C127.199 93.6149 126.857 94.0348 126.594 94.2222C126.275 94.449 125.767 94.5909 125.074 94.6465L124.032 94.7302V91.9285V89.127L125.045 89.2318C125.623 89.2914 126.229 89.4625 126.454 89.6296ZM187.176 89.5568C187.444 89.8255 187.593 90.2138 187.673 90.8539C187.736 91.3563 187.736 92.1784 187.673 92.6808C187.593 93.3209 187.444 93.7092 187.176 93.9779C186.937 94.2169 186.602 94.3615 186.288 94.3615C186.01 94.3615 185.65 94.29 185.487 94.2028C185.324 94.1155 185.109 93.8128 185.011 93.5301C184.912 93.2473 184.832 92.448 184.832 91.7537C184.832 91.0595 184.908 90.2859 185.001 90.035C185.094 89.784 185.291 89.4874 185.437 89.3759C185.584 89.2645 185.949 89.1732 186.248 89.1732C186.604 89.1732 186.925 89.3058 187.176 89.5568ZM29.0218 92.9023C29.2002 93.0806 29.3461 93.3757 29.3461 93.5581C29.3461 93.7405 29.1669 94.0688 28.9481 94.2877C28.6134 94.6225 28.3945 94.6857 27.5699 94.6857H26.5898V93.6319V92.578H27.6437C28.4814 92.578 28.764 92.6445 29.0218 92.9023ZM85.4719 92.8464C85.6447 93.0026 85.7684 93.3373 85.7684 93.6478C85.7684 94.015 85.6562 94.2595 85.408 94.4333C85.1749 94.5967 84.6888 94.6857 84.0299 94.6857H83.0122V93.6319V92.578H84.0938C84.8728 92.578 85.2584 92.6531 85.4719 92.8464Z" fill="#D5D1CF"></path></svg>