<svg xmlns="http://www.w3.org/2000/svg" width="1654" height="1213" viewBox="0 0 1654 1213" fill="none"><g clip-path="url(#clip0_106_8175)"><rect width="1654" height="1212.93" fill="white"></rect><rect width="827.861" height="390.241" transform="matrix(1 0 0 -1 0 825.277)" fill="#F7F7F7"></rect><g clip-path="url(#clip1_106_8175)"><path d="M460.419 641.849C467.431 652.169 474.379 662.395 481.406 672.737C481.052 672.76 480.82 672.789 480.589 672.789C475.407 672.792 470.225 672.785 465.044 672.799C464.485 672.8 464.131 672.571 463.828 672.117C459.471 665.601 455.104 659.093 450.741 652.58C449.052 650.058 447.355 647.542 445.692 645.002C445.27 644.359 444.775 644.105 444.012 644.109C438.687 644.136 433.362 644.124 428.036 644.124C427.06 644.124 427.06 644.125 427.06 645.151C427.06 653.845 427.059 662.539 427.059 671.234C427.059 671.381 427.059 671.527 427.057 671.674C427.052 672.789 427.052 672.79 425.978 672.79C422.373 672.79 418.769 672.794 415.164 672.789C413.566 672.786 413.62 672.99 413.622 671.245C413.634 653.73 413.645 636.216 413.658 618.703C413.666 608.689 413.677 598.674 413.687 588.66C413.688 587.574 413.738 587.518 414.789 587.518C423.163 587.518 431.536 587.508 439.909 587.523C442.733 587.528 445.561 587.534 448.382 587.658C453.617 587.89 458.768 588.666 463.7 590.578C468.037 592.258 471.602 594.946 474.071 599.032C475.619 601.595 476.581 604.396 477.106 607.338C478.12 613.022 478.13 618.71 476.816 624.353C474.893 632.608 470.003 638.197 462.227 641.149C461.655 641.367 461.086 641.591 460.419 641.849ZM427.027 615.761C427.033 615.761 427.04 615.761 427.046 615.761C427.046 620.557 427.046 625.351 427.046 630.147C427.046 631.133 427.05 631.145 427.997 631.138C434.197 631.099 440.398 631.028 446.601 631.031C449.384 631.033 452.109 630.703 454.792 629.971C459.191 628.769 462.083 625.987 463.273 621.45C464.268 617.661 464.303 613.837 463.54 610.007C462.648 605.53 459.924 602.817 455.665 601.649C452.767 600.855 449.804 600.45 446.813 600.423C440.571 600.368 434.327 600.394 428.083 600.388C427.065 600.387 427.027 600.428 427.027 601.499C427.025 606.254 427.027 611.008 427.027 615.761Z" fill="#0B0B0B"></path><path d="M497.601 630.153C497.601 616.306 497.601 602.457 497.601 588.61C497.601 587.599 497.605 587.598 498.577 587.598C514.593 587.598 530.608 587.6 546.625 587.594C548.732 587.593 550.84 587.54 552.947 587.52C553.869 587.511 553.963 587.634 553.962 588.564C553.957 592.377 553.962 596.19 553.963 600.003C553.963 600.87 553.96 600.873 553.107 600.873C539.406 600.873 525.703 600.873 512.002 600.873C510.947 600.873 510.947 600.874 510.947 601.959C510.949 608.831 510.953 615.702 510.957 622.574C510.957 623.703 510.958 623.704 512.036 623.704C524.141 623.704 536.245 623.704 548.349 623.704C548.534 623.704 548.718 623.713 548.903 623.704C549.354 623.683 549.606 623.865 549.579 624.36C549.571 624.484 549.583 624.611 549.584 624.737C549.589 628.277 549.596 631.817 549.599 635.357C549.6 636.301 549.547 636.352 548.629 636.352C536.442 636.352 524.256 636.352 512.069 636.352C510.97 636.352 510.965 636.357 510.967 637.47C510.97 644.446 510.973 651.423 510.976 658.399C510.976 659.402 510.978 659.404 511.976 659.404C526.129 659.404 540.281 659.404 554.434 659.404C555.385 659.404 555.386 659.404 555.386 660.363C555.384 663.798 555.378 667.235 555.379 670.67C555.379 671.151 555.415 671.632 555.418 672.113C555.421 672.563 555.233 672.832 554.748 672.794C554.606 672.783 554.462 672.793 554.318 672.793C535.742 672.793 517.165 672.793 498.589 672.793C497.56 672.793 497.523 672.755 497.523 671.699C497.523 657.852 497.523 644.003 497.523 630.156C497.549 630.153 497.575 630.153 497.601 630.153Z" fill="#0B0B0B"></path><path d="M272.025 630.178C272.025 616.352 272.025 602.526 272.025 588.701C272.025 587.636 272.133 587.526 273.19 587.527C289.387 587.553 305.584 587.581 321.781 587.602C322.741 587.604 323.702 587.536 324.662 587.532C325.385 587.529 325.524 587.685 325.518 588.423C325.484 592.316 325.436 596.21 325.414 600.105C325.41 600.648 325.19 600.763 324.707 600.763C317.171 600.753 309.635 600.759 302.097 600.761C296.875 600.763 291.653 600.761 286.43 600.761C285.421 600.761 285.372 600.808 285.372 601.806C285.373 608.949 285.374 616.093 285.378 623.235C285.378 624.362 285.479 624.463 286.562 624.463C297.825 624.461 309.089 624.457 320.352 624.453C321.1 624.453 321.208 624.559 321.208 625.317C321.209 629.108 321.212 632.9 321.213 636.691C321.213 637.621 321.213 637.621 320.272 637.621C309.009 637.621 297.745 637.621 286.482 637.621C285.271 637.621 285.438 637.587 285.438 638.719C285.437 649.654 285.439 660.588 285.441 671.524C285.441 672.8 285.438 672.8 284.189 672.8C280.462 672.8 276.734 672.8 273.008 672.8C272.03 672.8 272 672.771 272 671.783C272 657.916 272 644.048 272 630.18C272.009 630.178 272.016 630.178 272.025 630.178Z" fill="#0B0B0B"></path><path d="M391.127 630.222C391.127 643.65 391.127 657.077 391.125 670.504C391.125 671.027 391.074 671.553 391.112 672.073C391.154 672.641 390.925 672.804 390.401 672.799C388.149 672.775 385.897 672.776 383.645 672.775C382.027 672.775 380.409 672.788 378.791 672.79C377.69 672.793 377.682 672.785 377.684 671.683C377.685 658.759 377.686 645.834 377.69 632.91C377.695 618.226 377.702 603.543 377.708 588.859C377.708 588.65 377.707 588.44 377.711 588.231C377.718 587.803 377.898 587.594 378.351 587.595C382.385 587.605 386.419 587.609 390.453 587.593C391.048 587.59 391.042 587.948 391.042 588.37C391.042 591.889 391.05 595.409 391.05 598.927C391.052 609.359 391.05 619.79 391.05 630.222C391.078 630.222 391.102 630.222 391.127 630.222Z" fill="#0B0B0B"></path><path d="M355.159 630.199C355.159 643.962 355.16 657.725 355.157 671.49C355.157 672.875 355.273 672.789 353.899 672.79C350.212 672.794 346.526 672.791 342.84 672.791C341.76 672.791 341.734 672.768 341.734 671.677C341.743 655.463 341.753 639.248 341.765 623.035C341.774 611.535 341.786 600.033 341.798 588.532C341.8 587.63 341.925 587.508 342.781 587.519C345.072 587.548 347.364 587.58 349.656 587.597C351.192 587.609 352.729 587.597 354.264 587.6C355.12 587.601 355.123 587.606 355.125 588.471C355.131 599.678 355.137 610.885 355.143 622.094C355.144 624.796 355.143 627.499 355.143 630.2C355.148 630.199 355.154 630.199 355.159 630.199Z" fill="#0B0B0B"></path></g><rect x="828" y="-1.53345" width="826.139" height="827" fill="#0B0B0B"></rect><g clip-path="url(#clip2_106_8175)"><path d="M577.475 221.989C559.284 203.574 548.532 181.401 545.944 155.062C536.717 155.062 527.534 155.062 518.24 155.062C517.685 158.058 517.167 161.125 516.541 164.166C511.586 188.232 500.947 209.047 483.06 225.646C466.685 240.841 447.672 250.32 425.713 253.253C423.8 253.509 421.878 253.699 419.956 253.875C416.188 254.218 412.394 254.218 408.625 253.875C406.701 253.699 404.782 253.506 402.868 253.253C380.91 250.32 361.894 240.844 345.521 225.646C327.635 209.047 316.995 188.232 312.04 164.166C311.415 161.125 310.897 158.061 310.341 155.062H282.637C280.05 181.398 269.295 203.574 251.107 221.989C232.96 240.35 211.487 251.761 186 254.483V281.7C191.887 280.622 197.658 279.767 203.337 278.49C226.65 273.237 247.286 262.6 264.889 245.868C274.811 236.437 283.45 225.86 291.656 214.872C293.91 211.852 296.2 208.86 298.582 205.712C300.339 208.809 302.032 211.733 303.664 214.69C307.045 220.816 310.55 226.849 315.018 232.235C322.706 241.505 331.632 249.355 341.217 256.427C362.994 272.495 387.228 281.054 414.069 281.491C414.069 281.494 414.069 281.497 414.069 281.5C414.142 281.5 414.214 281.497 414.286 281.494C414.359 281.494 414.431 281.497 414.504 281.5C414.504 281.497 414.504 281.494 414.504 281.491C441.345 281.054 465.579 272.495 487.355 256.427C496.941 249.355 505.867 241.505 513.555 232.235C518.023 226.849 521.525 220.816 524.909 214.69C526.541 211.73 528.234 208.809 529.991 205.712C532.373 208.86 534.663 211.852 536.917 214.872C545.125 225.857 553.762 236.434 563.683 245.868C581.284 262.6 601.923 273.234 625.236 278.49C630.915 279.77 636.683 280.622 642.573 281.7V254.483C617.086 251.761 595.613 240.35 577.475 221.989Z" fill="#0B0B0B"></path></g><g clip-path="url(#clip3_106_8175)"><path d="M1310.06 429.144C1320.48 444.468 1330.81 459.652 1341.25 475.009C1340.72 475.043 1340.38 475.086 1340.04 475.086C1332.33 475.09 1324.63 475.08 1316.93 475.101C1316.1 475.103 1315.57 474.763 1315.12 474.088C1308.65 464.413 1302.16 454.749 1295.67 445.079C1293.16 441.335 1290.64 437.598 1288.17 433.827C1287.54 432.872 1286.8 432.495 1285.67 432.5C1277.76 432.541 1269.84 432.523 1261.93 432.523C1260.47 432.523 1260.47 432.525 1260.47 434.047C1260.47 446.957 1260.47 459.867 1260.47 472.777C1260.47 472.995 1260.47 473.212 1260.47 473.431C1260.46 475.086 1260.46 475.088 1258.87 475.088C1253.51 475.088 1248.15 475.094 1242.79 475.086C1240.42 475.082 1240.5 475.385 1240.5 472.793C1240.52 446.787 1240.54 420.781 1240.56 394.776C1240.57 379.907 1240.58 365.037 1240.6 350.167C1240.6 348.554 1240.67 348.472 1242.24 348.472C1254.68 348.472 1267.13 348.457 1279.57 348.48C1283.77 348.487 1287.97 348.495 1292.17 348.68C1299.95 349.023 1307.6 350.176 1314.93 353.015C1321.38 355.509 1326.68 359.5 1330.35 365.567C1332.65 369.374 1334.08 373.533 1334.86 377.902C1336.37 386.342 1336.38 394.788 1334.43 403.166C1331.57 415.424 1324.3 423.722 1312.74 428.105C1311.89 428.429 1311.05 428.761 1310.06 429.144ZM1260.42 390.408C1260.43 390.408 1260.44 390.408 1260.45 390.408C1260.45 397.529 1260.45 404.648 1260.45 411.769C1260.45 413.234 1260.46 413.251 1261.87 413.241C1271.08 413.183 1280.3 413.077 1289.52 413.082C1293.65 413.084 1297.71 412.595 1301.69 411.507C1308.23 409.723 1312.53 405.591 1314.3 398.855C1315.78 393.229 1315.83 387.551 1314.7 381.865C1313.37 375.217 1309.32 371.188 1302.99 369.454C1298.68 368.275 1294.28 367.673 1289.83 367.634C1280.56 367.552 1271.27 367.591 1261.99 367.582C1260.48 367.58 1260.42 367.641 1260.42 369.232C1260.42 376.291 1260.42 383.35 1260.42 390.408Z" fill="white"></path><path d="M1365.32 411.778C1365.32 391.217 1365.32 370.653 1365.32 350.092C1365.32 348.591 1365.32 348.59 1366.77 348.59C1390.57 348.59 1414.38 348.593 1438.18 348.584C1441.32 348.582 1444.45 348.504 1447.58 348.474C1448.95 348.461 1449.09 348.644 1449.09 350.025C1449.08 355.686 1449.09 361.348 1449.09 367.01C1449.09 368.297 1449.09 368.301 1447.82 368.301C1427.45 368.301 1407.09 368.301 1386.72 368.301C1385.15 368.301 1385.15 368.303 1385.15 369.913C1385.16 380.117 1385.16 390.32 1385.17 400.524C1385.17 402.2 1385.17 402.202 1386.77 402.202C1404.76 402.202 1422.76 402.202 1440.75 402.202C1441.02 402.202 1441.3 402.215 1441.57 402.202C1442.24 402.17 1442.61 402.441 1442.57 403.175C1442.56 403.36 1442.58 403.549 1442.58 403.736C1442.59 408.992 1442.6 414.248 1442.6 419.504C1442.61 420.906 1442.53 420.982 1441.16 420.982C1423.05 420.982 1404.94 420.982 1386.82 420.982C1385.19 420.982 1385.18 420.99 1385.18 422.642C1385.19 433.001 1385.19 443.36 1385.2 453.719C1385.2 455.208 1385.2 455.21 1386.68 455.21C1407.72 455.21 1428.75 455.21 1449.79 455.21C1451.2 455.21 1451.21 455.21 1451.21 456.634C1451.2 461.735 1451.19 466.838 1451.2 471.939C1451.2 472.653 1451.25 473.367 1451.25 474.082C1451.26 474.749 1450.98 475.149 1450.26 475.093C1450.05 475.076 1449.83 475.091 1449.62 475.091C1422.01 475.091 1394.4 475.091 1366.79 475.091C1365.26 475.091 1365.2 475.035 1365.2 473.468C1365.2 452.906 1365.2 432.343 1365.2 411.782C1365.24 411.778 1365.28 411.778 1365.32 411.778Z" fill="white"></path><path d="M1030.04 411.814C1030.04 391.285 1030.04 370.755 1030.04 350.227C1030.04 348.646 1030.2 348.482 1031.77 348.484C1055.84 348.523 1079.92 348.564 1103.99 348.596C1105.42 348.598 1106.85 348.497 1108.27 348.491C1109.35 348.488 1109.55 348.719 1109.55 349.814C1109.49 355.596 1109.42 361.377 1109.39 367.16C1109.38 367.967 1109.06 368.137 1108.34 368.137C1097.14 368.122 1085.94 368.132 1074.73 368.135C1066.97 368.137 1059.21 368.135 1051.45 368.135C1049.95 368.135 1049.87 368.204 1049.87 369.686C1049.88 380.292 1049.88 390.9 1049.88 401.505C1049.88 403.178 1050.03 403.329 1051.64 403.329C1068.38 403.325 1085.13 403.32 1101.87 403.314C1102.98 403.314 1103.14 403.471 1103.14 404.596C1103.14 410.226 1103.14 415.856 1103.15 421.486C1103.15 422.867 1103.15 422.867 1101.75 422.867C1085.01 422.867 1068.27 422.867 1051.52 422.867C1049.73 422.867 1049.97 422.816 1049.97 424.496C1049.97 440.734 1049.98 456.969 1049.98 473.207C1049.98 475.101 1049.97 475.101 1048.12 475.101C1042.58 475.101 1037.04 475.101 1031.5 475.101C1030.04 475.101 1030 475.059 1030 473.592C1030 453 1030 432.409 1030 411.818C1030.01 411.814 1030.02 411.814 1030.04 411.814Z" fill="white"></path><path d="M1207.06 411.881C1207.06 431.818 1207.06 451.755 1207.06 471.692C1207.06 472.47 1206.98 473.251 1207.04 474.022C1207.1 474.865 1206.76 475.108 1205.98 475.101C1202.63 475.065 1199.29 475.067 1195.94 475.065C1193.53 475.065 1191.13 475.084 1188.72 475.087C1187.09 475.091 1187.08 475.08 1187.08 473.443C1187.08 454.253 1187.08 435.062 1187.09 415.872C1187.09 394.068 1187.11 372.266 1187.11 350.462C1187.11 350.152 1187.11 349.84 1187.12 349.529C1187.13 348.894 1187.4 348.584 1188.07 348.586C1194.07 348.601 1200.06 348.606 1206.06 348.582C1206.94 348.578 1206.93 349.109 1206.93 349.737C1206.93 354.961 1206.95 360.188 1206.95 365.412C1206.95 380.902 1206.95 396.39 1206.95 411.881C1206.99 411.881 1207.02 411.881 1207.06 411.881Z" fill="white"></path><path d="M1153.61 411.846C1153.61 432.283 1153.61 452.719 1153.6 473.157C1153.6 475.214 1153.78 475.085 1151.73 475.087C1146.25 475.093 1140.77 475.089 1135.3 475.089C1133.69 475.089 1133.65 475.055 1133.65 473.435C1133.67 449.359 1133.68 425.283 1133.7 401.209C1133.71 384.132 1133.73 367.054 1133.75 349.977C1133.75 348.638 1133.94 348.456 1135.21 348.473C1138.61 348.516 1142.02 348.563 1145.43 348.589C1147.71 348.606 1149.99 348.589 1152.28 348.593C1153.55 348.595 1153.55 348.602 1153.55 349.886C1153.56 366.527 1153.57 383.168 1153.58 399.811C1153.58 403.823 1153.58 407.837 1153.58 411.848C1153.59 411.846 1153.6 411.846 1153.61 411.846Z" fill="white"></path></g><rect x="828" y="825.467" width="827" height="387.656" fill="#DC5031"></rect><g clip-path="url(#clip4_106_8175)"><path d="M1348.04 1021.63C1336.1 1009.48 1329.04 994.847 1327.34 977.467C1321.28 977.467 1315.25 977.467 1309.15 977.467C1308.79 979.444 1308.45 981.467 1308.03 983.474C1304.78 999.354 1297.8 1013.09 1286.05 1024.04C1275.3 1034.07 1262.81 1040.32 1248.4 1042.26C1247.14 1042.43 1245.88 1042.55 1244.62 1042.67C1242.14 1042.9 1239.65 1042.9 1237.18 1042.67C1235.91 1042.55 1234.65 1042.43 1233.4 1042.26C1218.98 1040.32 1206.49 1034.07 1195.74 1024.04C1184 1013.09 1177.01 999.354 1173.76 983.474C1173.35 981.467 1173.01 979.446 1172.64 977.467H1154.45C1152.75 994.845 1145.69 1009.48 1133.75 1021.63C1121.83 1033.74 1107.73 1041.27 1091 1043.07V1061.03C1094.87 1060.32 1098.65 1059.75 1102.38 1058.91C1117.69 1055.45 1131.24 1048.43 1142.8 1037.39C1149.31 1031.16 1154.99 1024.18 1160.37 1016.93C1161.85 1014.94 1163.36 1012.97 1164.92 1010.89C1166.08 1012.93 1167.19 1014.86 1168.26 1016.81C1170.48 1020.85 1172.78 1024.84 1175.71 1028.39C1180.76 1034.51 1186.62 1039.69 1192.92 1044.35C1207.21 1054.96 1223.13 1060.6 1240.75 1060.89C1240.75 1060.89 1240.75 1060.9 1240.75 1060.9C1240.8 1060.9 1240.85 1060.9 1240.89 1060.89C1240.94 1060.89 1240.99 1060.9 1241.04 1060.9C1241.04 1060.9 1241.04 1060.89 1241.04 1060.89C1258.66 1060.6 1274.57 1054.96 1288.87 1044.35C1295.17 1039.69 1301.03 1034.51 1306.07 1028.39C1309.01 1024.84 1311.31 1020.85 1313.53 1016.81C1314.6 1014.86 1315.71 1012.93 1316.87 1010.89C1318.43 1012.97 1319.93 1014.94 1321.41 1016.93C1326.8 1024.18 1332.47 1031.16 1338.99 1037.39C1350.54 1048.43 1364.1 1055.44 1379.4 1058.91C1383.13 1059.76 1386.92 1060.32 1390.79 1061.03V1043.07C1374.05 1041.27 1359.95 1033.74 1348.04 1021.63Z" fill="white"></path></g><circle cx="280.128" cy="1019.97" r="111.128" fill="#0B0B0B"></circle><g clip-path="url(#clip5_106_8175)"><path d="M323.357 1020.95C318.587 1015.94 315.767 1009.9 315.088 1002.74C312.668 1002.74 310.26 1002.74 307.822 1002.74C307.676 1003.55 307.541 1004.39 307.377 1005.21C306.077 1011.76 303.287 1017.43 298.596 1021.94C294.301 1026.08 289.315 1028.66 283.556 1029.46C283.054 1029.53 282.55 1029.58 282.046 1029.63C281.058 1029.72 280.062 1029.72 279.074 1029.63C278.569 1029.58 278.066 1029.53 277.564 1029.46C271.805 1028.66 266.818 1026.08 262.524 1021.94C257.833 1017.43 255.043 1011.76 253.743 1005.21C253.579 1004.39 253.443 1003.55 253.298 1002.74H246.032C245.353 1009.9 242.533 1015.94 237.763 1020.95C233.003 1025.95 227.372 1029.05 220.688 1029.79V1037.2C222.231 1036.9 223.745 1036.67 225.234 1036.32C231.349 1034.89 236.761 1032 241.377 1027.45C243.979 1024.88 246.245 1022 248.397 1019.01C248.989 1018.19 249.589 1017.38 250.214 1016.52C250.674 1017.36 251.118 1018.16 251.547 1018.96C252.433 1020.63 253.352 1022.27 254.524 1023.74C256.54 1026.26 258.881 1028.4 261.395 1030.32C267.107 1034.69 273.462 1037.02 280.502 1037.14C280.502 1037.14 280.502 1037.14 280.502 1037.14C280.521 1037.14 280.54 1037.14 280.559 1037.14C280.578 1037.14 280.597 1037.14 280.616 1037.14C280.616 1037.14 280.616 1037.14 280.616 1037.14C287.655 1037.02 294.011 1034.69 299.722 1030.32C302.236 1028.4 304.577 1026.26 306.593 1023.74C307.765 1022.27 308.684 1020.63 309.571 1018.96C309.999 1018.16 310.443 1017.36 310.904 1016.52C311.529 1017.38 312.129 1018.19 312.72 1019.01C314.873 1022 317.138 1024.88 319.74 1027.45C324.356 1032 329.769 1034.89 335.883 1036.32C337.373 1036.67 338.886 1036.9 340.43 1037.2V1029.79C333.746 1029.05 328.114 1025.95 323.357 1020.95Z" fill="white"></path></g><circle cx="547.179" cy="1019.97" r="111.128" fill="#DC5031"></circle><g clip-path="url(#clip6_106_8175)"><path d="M590.408 1020.95C585.637 1015.94 582.817 1009.9 582.139 1002.74C579.719 1002.74 577.31 1002.74 574.873 1002.74C574.727 1003.55 574.591 1004.39 574.427 1005.21C573.128 1011.76 570.338 1017.43 565.647 1021.94C561.352 1026.08 556.365 1028.66 550.606 1029.46C550.105 1029.53 549.601 1029.58 549.097 1029.63C548.108 1029.72 547.113 1029.72 546.125 1029.63C545.62 1029.58 545.117 1029.53 544.615 1029.46C538.856 1028.66 533.869 1026.08 529.575 1021.94C524.884 1017.43 522.094 1011.76 520.794 1005.21C520.63 1004.39 520.494 1003.55 520.349 1002.74H513.083C512.404 1009.9 509.583 1015.94 504.813 1020.95C500.054 1025.95 494.423 1029.05 487.738 1029.79V1037.2C489.282 1036.9 490.796 1036.67 492.285 1036.32C498.399 1034.89 503.812 1032 508.428 1027.45C511.03 1024.88 513.296 1022 515.448 1019.01C516.039 1018.19 516.64 1017.38 517.264 1016.52C517.725 1017.36 518.169 1018.16 518.597 1018.96C519.484 1020.63 520.403 1022.27 521.575 1023.74C523.591 1026.26 525.932 1028.4 528.446 1030.32C534.157 1034.69 540.513 1037.02 547.553 1037.14C547.553 1037.14 547.553 1037.14 547.553 1037.14C547.572 1037.14 547.591 1037.14 547.61 1037.14C547.629 1037.14 547.648 1037.14 547.667 1037.14C547.667 1037.14 547.667 1037.14 547.667 1037.14C554.706 1037.02 561.062 1034.69 566.773 1030.32C569.287 1028.4 571.628 1026.26 573.644 1023.74C574.816 1022.27 575.735 1020.63 576.622 1018.96C577.05 1018.16 577.494 1017.36 577.955 1016.52C578.58 1017.38 579.18 1018.19 579.771 1019.01C581.924 1022 584.189 1024.88 586.791 1027.45C591.407 1032 596.82 1034.89 602.934 1036.32C604.423 1036.67 605.936 1036.9 607.481 1037.2V1029.79C600.797 1029.05 595.165 1025.95 590.408 1020.95Z" fill="white"></path></g></g><defs><clipPath id="clip0_106_8175"><rect width="1654" height="1212.93" fill="white"></rect></clipPath><clipPath id="clip1_106_8175"><rect width="283.42" height="85.2844" fill="white" transform="translate(272 587.515)"></rect></clipPath><clipPath id="clip2_106_8175"><rect width="456.573" height="126.634" fill="white" transform="translate(186 155.062)"></rect></clipPath><clipPath id="clip3_106_8175"><rect width="421.253" height="126.634" fill="white" transform="translate(1030 348.467)"></rect></clipPath><clipPath id="clip4_106_8175"><rect width="299.788" height="83.5615" fill="white" transform="translate(1091 977.467)"></rect></clipPath><clipPath id="clip5_106_8175"><rect width="119.743" height="34.4583" fill="white" transform="translate(220.688 1002.74)"></rect></clipPath><clipPath id="clip6_106_8175"><rect width="119.743" height="34.4583" fill="white" transform="translate(487.738 1002.74)"></rect></clipPath></defs></svg>