<svg xmlns="http://www.w3.org/2000/svg" width="538" height="538" viewBox="0 0 538 538" fill="none"><rect width="538" height="538" fill="#121212"></rect><path d="M343.86 295.842C330.354 288.124 305.914 286.838 275.686 268.83C305.914 251.465 330.354 249.535 343.86 241.817C350.935 237.958 355.437 230.884 350.292 221.88C345.147 212.876 336.142 213.519 329.068 218.021C316.205 225.095 302.698 245.676 272.47 263.685C272.47 227.668 283.404 205.158 283.404 189.722C283.404 180.718 279.545 173 269.254 173C258.964 173 255.105 180.718 255.105 189.722C255.105 205.158 266.039 227.668 266.039 263.685C235.81 245.676 222.304 225.095 209.441 218.021C202.366 213.519 194.005 212.876 188.217 221.88C183.072 230.884 187.574 237.958 194.648 241.817C208.155 249.535 232.595 251.465 262.823 268.83C232.595 286.838 208.155 288.124 194.648 295.842C187.574 300.344 183.072 307.419 188.217 316.423C194.005 325.427 202.366 324.784 209.441 320.282C222.304 312.564 235.81 291.983 266.039 273.975C266.039 309.992 255.105 333.145 255.105 348.581C255.105 356.942 258.964 364.66 269.254 364.66C279.545 364.66 283.404 356.942 283.404 348.581C283.404 333.145 272.47 309.992 272.47 273.975C302.698 291.983 316.205 312.564 329.068 320.282C336.142 324.784 345.147 325.427 350.292 316.423C355.437 307.419 350.935 300.344 343.86 295.842Z" fill="#E8E2DE"></path></svg>